<mxfile host="Electron" modified="2023-10-31T07:52:19.250Z" agent="Mozilla/5.0 (Windows NT 10.0; Win64; x64) AppleWebKit/537.36 (KHTML, like Gecko) draw.io/22.0.2 Chrome/114.0.5735.289 Electron/25.8.4 Safari/537.36" etag="w5_UKG_JhfYXSpj1JyE5" version="22.0.2" type="device">
  <diagram name="Страница — 1" id="WTZCy36lrByyOwjqe_xa">
    <mxGraphModel dx="1884" dy="-53" grid="0" gridSize="10" guides="1" tooltips="1" connect="1" arrows="1" fold="1" page="1" pageScale="1" pageWidth="827" pageHeight="1169" math="0" shadow="0">
      <root>
        <mxCell id="0" />
        <mxCell id="1" parent="0" />
        <mxCell id="0IGYqATvzg_pEUOGRtzh-1" value="Концепция сцены, &lt;br&gt;технические ограничения, &lt;br&gt;игровой жанр и стиль" style="text;html=1;align=center;verticalAlign=middle;resizable=0;points=[];autosize=1;strokeColor=none;fillColor=none;fontSize=7;" vertex="1" parent="1">
          <mxGeometry x="70.56" y="1197" width="110" height="40" as="geometry" />
        </mxCell>
        <mxCell id="0IGYqATvzg_pEUOGRtzh-2" value="" style="endArrow=classic;html=1;rounded=0;entryX=0;entryY=0.5;entryDx=0;entryDy=0;" edge="1" parent="1">
          <mxGeometry width="50" height="50" relative="1" as="geometry">
            <mxPoint x="93.56" y="1234" as="sourcePoint" />
            <mxPoint x="193.56" y="1234" as="targetPoint" />
          </mxGeometry>
        </mxCell>
        <mxCell id="0IGYqATvzg_pEUOGRtzh-3" value="" style="rounded=0;whiteSpace=wrap;html=1;gradientColor=none;glass=0;shadow=0;" vertex="1" parent="1">
          <mxGeometry x="193.78000000000003" y="1191" width="155" height="90" as="geometry" />
        </mxCell>
        <mxCell id="0IGYqATvzg_pEUOGRtzh-4" value="" style="endArrow=none;html=1;rounded=0;exitX=0.003;exitY=0.15;exitDx=0;exitDy=0;entryX=0.077;entryY=0;entryDx=0;entryDy=0;entryPerimeter=0;jumpSize=100;endSize=6;jumpStyle=none;exitPerimeter=0;" edge="1" parent="1" source="0IGYqATvzg_pEUOGRtzh-3" target="0IGYqATvzg_pEUOGRtzh-3">
          <mxGeometry width="50" height="50" relative="1" as="geometry">
            <mxPoint x="193.78000000000003" y="1204.32" as="sourcePoint" />
            <mxPoint x="208.3" y="1191" as="targetPoint" />
          </mxGeometry>
        </mxCell>
        <mxCell id="0IGYqATvzg_pEUOGRtzh-5" value="0р." style="text;html=1;align=center;verticalAlign=middle;resizable=0;points=[];autosize=1;strokeColor=none;fillColor=none;fontSize=5;" vertex="1" parent="1">
          <mxGeometry x="189.78000000000003" y="1191" width="30" height="20" as="geometry" />
        </mxCell>
        <mxCell id="0IGYqATvzg_pEUOGRtzh-6" value="" style="endArrow=none;html=1;rounded=0;exitX=0.002;exitY=0.635;exitDx=0;exitDy=0;exitPerimeter=0;entryX=1.005;entryY=0.786;entryDx=0;entryDy=0;entryPerimeter=0;" edge="1" parent="1">
          <mxGeometry width="50" height="50" relative="1" as="geometry">
            <mxPoint x="194.02000000000004" y="1261.1" as="sourcePoint" />
            <mxPoint x="349.5550000000001" y="1260.74" as="targetPoint" />
          </mxGeometry>
        </mxCell>
        <mxCell id="0IGYqATvzg_pEUOGRtzh-7" value="1.1.1" style="text;html=1;align=center;verticalAlign=middle;resizable=0;points=[];autosize=1;strokeColor=none;fillColor=none;fontSize=8;" vertex="1" parent="1">
          <mxGeometry x="190.78000000000003" y="1262" width="40" height="20" as="geometry" />
        </mxCell>
        <mxCell id="0IGYqATvzg_pEUOGRtzh-8" value="&lt;p style=&quot;margin: 0cm; text-indent: 35.45pt;&quot; class=&quot;MsoListParagraph&quot;&gt;Определение концепции&lt;/p&gt;&lt;p style=&quot;margin: 0cm; text-indent: 35.45pt;&quot; class=&quot;MsoListParagraph&quot;&gt;&amp;nbsp;и структуры сцены&lt;br&gt;&lt;/p&gt;" style="text;html=1;align=center;verticalAlign=middle;resizable=0;points=[];autosize=1;strokeColor=none;fillColor=none;fontSize=9;" vertex="1" parent="1">
          <mxGeometry x="162.78000000000003" y="1208" width="170" height="40" as="geometry" />
        </mxCell>
        <mxCell id="0IGYqATvzg_pEUOGRtzh-9" value="" style="endArrow=none;html=1;rounded=0;entryX=0.5;entryY=1;entryDx=0;entryDy=0;" edge="1" parent="1">
          <mxGeometry width="50" height="50" relative="1" as="geometry">
            <mxPoint x="271.2200000000001" y="1261" as="sourcePoint" />
            <mxPoint x="271.2200000000001" y="1281" as="targetPoint" />
          </mxGeometry>
        </mxCell>
        <mxCell id="0IGYqATvzg_pEUOGRtzh-10" value="" style="rounded=0;whiteSpace=wrap;html=1;gradientColor=none;glass=0;shadow=0;" vertex="1" parent="1">
          <mxGeometry x="389.56" y="1190" width="155" height="90" as="geometry" />
        </mxCell>
        <mxCell id="0IGYqATvzg_pEUOGRtzh-11" value="" style="endArrow=none;html=1;rounded=0;exitX=0.003;exitY=0.15;exitDx=0;exitDy=0;entryX=0.077;entryY=0;entryDx=0;entryDy=0;entryPerimeter=0;jumpSize=100;endSize=6;jumpStyle=none;exitPerimeter=0;" edge="1" parent="1" source="0IGYqATvzg_pEUOGRtzh-10" target="0IGYqATvzg_pEUOGRtzh-10">
          <mxGeometry width="50" height="50" relative="1" as="geometry">
            <mxPoint x="389.56" y="1203.32" as="sourcePoint" />
            <mxPoint x="404.08" y="1190" as="targetPoint" />
          </mxGeometry>
        </mxCell>
        <mxCell id="0IGYqATvzg_pEUOGRtzh-12" value="0р." style="text;html=1;align=center;verticalAlign=middle;resizable=0;points=[];autosize=1;strokeColor=none;fillColor=none;fontSize=5;" vertex="1" parent="1">
          <mxGeometry x="385.56" y="1190" width="30" height="20" as="geometry" />
        </mxCell>
        <mxCell id="0IGYqATvzg_pEUOGRtzh-13" value="" style="endArrow=none;html=1;rounded=0;exitX=0.002;exitY=0.635;exitDx=0;exitDy=0;exitPerimeter=0;entryX=1.005;entryY=0.786;entryDx=0;entryDy=0;entryPerimeter=0;" edge="1" parent="1">
          <mxGeometry width="50" height="50" relative="1" as="geometry">
            <mxPoint x="389.8" y="1260.1" as="sourcePoint" />
            <mxPoint x="545.335" y="1259.74" as="targetPoint" />
          </mxGeometry>
        </mxCell>
        <mxCell id="0IGYqATvzg_pEUOGRtzh-14" value="1.1.2" style="text;html=1;align=center;verticalAlign=middle;resizable=0;points=[];autosize=1;strokeColor=none;fillColor=none;fontSize=8;" vertex="1" parent="1">
          <mxGeometry x="386.56" y="1261" width="40" height="20" as="geometry" />
        </mxCell>
        <mxCell id="0IGYqATvzg_pEUOGRtzh-15" value="&lt;p style=&quot;margin: 0cm; text-indent: 35.45pt;&quot; class=&quot;MsoListParagraph&quot;&gt;Разработка плана&lt;/p&gt;&lt;p style=&quot;margin: 0cm; text-indent: 35.45pt;&quot; class=&quot;MsoListParagraph&quot;&gt;&amp;nbsp;расположения объектов&lt;br&gt;&lt;/p&gt;" style="text;html=1;align=center;verticalAlign=middle;resizable=0;points=[];autosize=1;strokeColor=none;fillColor=none;fontSize=9;" vertex="1" parent="1">
          <mxGeometry x="358.56" y="1207" width="170" height="40" as="geometry" />
        </mxCell>
        <mxCell id="0IGYqATvzg_pEUOGRtzh-16" value="" style="endArrow=none;html=1;rounded=0;entryX=0.5;entryY=1;entryDx=0;entryDy=0;" edge="1" parent="1">
          <mxGeometry width="50" height="50" relative="1" as="geometry">
            <mxPoint x="467.00000000000006" y="1260" as="sourcePoint" />
            <mxPoint x="467.00000000000006" y="1280" as="targetPoint" />
          </mxGeometry>
        </mxCell>
        <mxCell id="0IGYqATvzg_pEUOGRtzh-17" value="" style="endArrow=classic;html=1;rounded=0;exitX=1;exitY=0.5;exitDx=0;exitDy=0;" edge="1" parent="1" source="0IGYqATvzg_pEUOGRtzh-3" target="0IGYqATvzg_pEUOGRtzh-10">
          <mxGeometry width="50" height="50" relative="1" as="geometry">
            <mxPoint x="353.56" y="1284" as="sourcePoint" />
            <mxPoint x="393.56" y="1234" as="targetPoint" />
          </mxGeometry>
        </mxCell>
        <mxCell id="0IGYqATvzg_pEUOGRtzh-18" value="" style="rounded=0;whiteSpace=wrap;html=1;gradientColor=none;glass=0;shadow=0;" vertex="1" parent="1">
          <mxGeometry x="389.56" y="1313.5" width="155" height="90" as="geometry" />
        </mxCell>
        <mxCell id="0IGYqATvzg_pEUOGRtzh-19" value="" style="endArrow=none;html=1;rounded=0;exitX=0.003;exitY=0.15;exitDx=0;exitDy=0;entryX=0.077;entryY=0;entryDx=0;entryDy=0;entryPerimeter=0;jumpSize=100;endSize=6;jumpStyle=none;exitPerimeter=0;" edge="1" parent="1" source="0IGYqATvzg_pEUOGRtzh-18" target="0IGYqATvzg_pEUOGRtzh-18">
          <mxGeometry width="50" height="50" relative="1" as="geometry">
            <mxPoint x="389.56" y="1326.82" as="sourcePoint" />
            <mxPoint x="404.08" y="1313.5" as="targetPoint" />
          </mxGeometry>
        </mxCell>
        <mxCell id="0IGYqATvzg_pEUOGRtzh-20" value="0р." style="text;html=1;align=center;verticalAlign=middle;resizable=0;points=[];autosize=1;strokeColor=none;fillColor=none;fontSize=5;" vertex="1" parent="1">
          <mxGeometry x="385.56" y="1313.5" width="30" height="20" as="geometry" />
        </mxCell>
        <mxCell id="0IGYqATvzg_pEUOGRtzh-21" value="" style="endArrow=none;html=1;rounded=0;exitX=0.002;exitY=0.635;exitDx=0;exitDy=0;exitPerimeter=0;entryX=1.005;entryY=0.786;entryDx=0;entryDy=0;entryPerimeter=0;" edge="1" parent="1">
          <mxGeometry width="50" height="50" relative="1" as="geometry">
            <mxPoint x="389.8" y="1383.6" as="sourcePoint" />
            <mxPoint x="545.335" y="1383.24" as="targetPoint" />
          </mxGeometry>
        </mxCell>
        <mxCell id="0IGYqATvzg_pEUOGRtzh-22" value="1.1.3" style="text;html=1;align=center;verticalAlign=middle;resizable=0;points=[];autosize=1;strokeColor=none;fillColor=none;fontSize=8;" vertex="1" parent="1">
          <mxGeometry x="386.56" y="1384.5" width="40" height="20" as="geometry" />
        </mxCell>
        <mxCell id="0IGYqATvzg_pEUOGRtzh-23" value="&lt;p style=&quot;margin: 0cm; text-indent: 35.45pt;&quot; class=&quot;MsoListParagraph&quot;&gt;Установка стиля&lt;/p&gt;&lt;p style=&quot;margin: 0cm; text-indent: 35.45pt;&quot; class=&quot;MsoListParagraph&quot;&gt;&amp;nbsp;и настроение сцены&lt;br&gt;&lt;/p&gt;" style="text;html=1;align=center;verticalAlign=middle;resizable=0;points=[];autosize=1;strokeColor=none;fillColor=none;fontSize=9;" vertex="1" parent="1">
          <mxGeometry x="363.56" y="1330.5" width="160" height="40" as="geometry" />
        </mxCell>
        <mxCell id="0IGYqATvzg_pEUOGRtzh-24" value="" style="endArrow=none;html=1;rounded=0;entryX=0.5;entryY=1;entryDx=0;entryDy=0;" edge="1" parent="1">
          <mxGeometry width="50" height="50" relative="1" as="geometry">
            <mxPoint x="467.00000000000006" y="1383.5" as="sourcePoint" />
            <mxPoint x="467.00000000000006" y="1403.5" as="targetPoint" />
          </mxGeometry>
        </mxCell>
        <mxCell id="0IGYqATvzg_pEUOGRtzh-25" value="" style="endArrow=classic;html=1;rounded=0;exitX=0.5;exitY=1;exitDx=0;exitDy=0;entryX=0.5;entryY=0;entryDx=0;entryDy=0;" edge="1" parent="1">
          <mxGeometry width="50" height="50" relative="1" as="geometry">
            <mxPoint x="481.06" y="1279" as="sourcePoint" />
            <mxPoint x="481.06" y="1312.5" as="targetPoint" />
          </mxGeometry>
        </mxCell>
        <mxCell id="0IGYqATvzg_pEUOGRtzh-26" value="" style="rounded=0;whiteSpace=wrap;html=1;gradientColor=none;glass=0;shadow=0;" vertex="1" parent="1">
          <mxGeometry x="193.00000000000006" y="1314" width="155" height="90" as="geometry" />
        </mxCell>
        <mxCell id="0IGYqATvzg_pEUOGRtzh-27" value="" style="endArrow=none;html=1;rounded=0;exitX=0.003;exitY=0.15;exitDx=0;exitDy=0;entryX=0.077;entryY=0;entryDx=0;entryDy=0;entryPerimeter=0;jumpSize=100;endSize=6;jumpStyle=none;exitPerimeter=0;" edge="1" parent="1" source="0IGYqATvzg_pEUOGRtzh-26" target="0IGYqATvzg_pEUOGRtzh-26">
          <mxGeometry width="50" height="50" relative="1" as="geometry">
            <mxPoint x="193.00000000000006" y="1327.32" as="sourcePoint" />
            <mxPoint x="207.52000000000004" y="1314" as="targetPoint" />
          </mxGeometry>
        </mxCell>
        <mxCell id="0IGYqATvzg_pEUOGRtzh-28" value="0р." style="text;html=1;align=center;verticalAlign=middle;resizable=0;points=[];autosize=1;strokeColor=none;fillColor=none;fontSize=5;" vertex="1" parent="1">
          <mxGeometry x="189.00000000000006" y="1314" width="30" height="20" as="geometry" />
        </mxCell>
        <mxCell id="0IGYqATvzg_pEUOGRtzh-29" value="" style="endArrow=none;html=1;rounded=0;exitX=0.002;exitY=0.635;exitDx=0;exitDy=0;exitPerimeter=0;entryX=1.005;entryY=0.786;entryDx=0;entryDy=0;entryPerimeter=0;" edge="1" parent="1">
          <mxGeometry width="50" height="50" relative="1" as="geometry">
            <mxPoint x="193.24000000000007" y="1384.1" as="sourcePoint" />
            <mxPoint x="348.7750000000001" y="1383.74" as="targetPoint" />
          </mxGeometry>
        </mxCell>
        <mxCell id="0IGYqATvzg_pEUOGRtzh-30" value="1.1.4" style="text;html=1;align=center;verticalAlign=middle;resizable=0;points=[];autosize=1;strokeColor=none;fillColor=none;fontSize=8;" vertex="1" parent="1">
          <mxGeometry x="190.00000000000006" y="1385" width="40" height="20" as="geometry" />
        </mxCell>
        <mxCell id="0IGYqATvzg_pEUOGRtzh-31" value="&lt;p style=&quot;margin: 0cm; text-indent: 35.45pt;&quot; class=&quot;MsoListParagraph&quot;&gt;Готовый макет сцены&lt;br&gt;&lt;/p&gt;" style="text;html=1;align=center;verticalAlign=middle;resizable=0;points=[];autosize=1;strokeColor=none;fillColor=none;fontSize=9;" vertex="1" parent="1">
          <mxGeometry x="167.00000000000006" y="1341" width="160" height="20" as="geometry" />
        </mxCell>
        <mxCell id="0IGYqATvzg_pEUOGRtzh-32" value="" style="endArrow=none;html=1;rounded=0;entryX=0.5;entryY=1;entryDx=0;entryDy=0;" edge="1" parent="1">
          <mxGeometry width="50" height="50" relative="1" as="geometry">
            <mxPoint x="270.44" y="1384" as="sourcePoint" />
            <mxPoint x="270.44" y="1404" as="targetPoint" />
          </mxGeometry>
        </mxCell>
        <mxCell id="0IGYqATvzg_pEUOGRtzh-33" value="" style="endArrow=none;html=1;rounded=0;exitX=1;exitY=0.5;exitDx=0;exitDy=0;startArrow=classic;startFill=1;endFill=0;" edge="1" parent="1">
          <mxGeometry width="50" height="50" relative="1" as="geometry">
            <mxPoint x="348" y="1358.1399999999999" as="sourcePoint" />
            <mxPoint x="389" y="1358.1399999999999" as="targetPoint" />
          </mxGeometry>
        </mxCell>
        <mxCell id="0IGYqATvzg_pEUOGRtzh-34" value="" style="endArrow=none;html=1;rounded=0;entryX=0;entryY=0.5;entryDx=0;entryDy=0;startArrow=classic;startFill=1;endFill=0;exitX=0;exitY=0.5;exitDx=0;exitDy=0;" edge="1" parent="1" source="0IGYqATvzg_pEUOGRtzh-205">
          <mxGeometry width="50" height="50" relative="1" as="geometry">
            <mxPoint x="93.00000000000006" y="1362.5" as="sourcePoint" />
            <mxPoint x="193.00000000000006" y="1362.5" as="targetPoint" />
            <Array as="points">
              <mxPoint x="563.56" y="1302" />
              <mxPoint x="563.56" y="1434" />
              <mxPoint x="93.56" y="1434" />
              <mxPoint x="93.56" y="1363" />
            </Array>
          </mxGeometry>
        </mxCell>
        <mxCell id="0IGYqATvzg_pEUOGRtzh-35" value="План расположения объектов,&lt;br&gt;&amp;nbsp;установленный стиль&lt;br&gt;&amp;nbsp;и настроение сцены." style="text;html=1;align=center;verticalAlign=middle;resizable=0;points=[];autosize=1;strokeColor=none;fillColor=none;fontSize=7;" vertex="1" parent="1">
          <mxGeometry x="75.00000000000006" y="1325.5" width="120" height="40" as="geometry" />
        </mxCell>
        <mxCell id="0IGYqATvzg_pEUOGRtzh-36" value=" Концепция сцены, &lt;br&gt;созданные ассеты&lt;br&gt;&amp;nbsp;и текстуры, игровой жанр и стиль." style="text;html=1;align=center;verticalAlign=middle;resizable=0;points=[];autosize=1;strokeColor=none;fillColor=none;fontSize=7;" vertex="1" parent="1">
          <mxGeometry x="623.1199999999999" y="1207" width="140" height="40" as="geometry" />
        </mxCell>
        <mxCell id="0IGYqATvzg_pEUOGRtzh-37" value="" style="endArrow=classic;html=1;rounded=0;entryX=0;entryY=0.5;entryDx=0;entryDy=0;exitX=1;exitY=0.5;exitDx=0;exitDy=0;" edge="1" parent="1" source="0IGYqATvzg_pEUOGRtzh-205">
          <mxGeometry width="50" height="50" relative="1" as="geometry">
            <mxPoint x="657.1199999999999" y="1244" as="sourcePoint" />
            <mxPoint x="757.1199999999999" y="1244" as="targetPoint" />
            <Array as="points">
              <mxPoint x="643.56" y="1302" />
              <mxPoint x="643.56" y="1244" />
            </Array>
          </mxGeometry>
        </mxCell>
        <mxCell id="0IGYqATvzg_pEUOGRtzh-38" value="" style="rounded=0;whiteSpace=wrap;html=1;gradientColor=none;glass=0;shadow=0;" vertex="1" parent="1">
          <mxGeometry x="757.3399999999999" y="1201" width="155" height="90" as="geometry" />
        </mxCell>
        <mxCell id="0IGYqATvzg_pEUOGRtzh-39" value="" style="endArrow=none;html=1;rounded=0;exitX=0.003;exitY=0.15;exitDx=0;exitDy=0;entryX=0.077;entryY=0;entryDx=0;entryDy=0;entryPerimeter=0;jumpSize=100;endSize=6;jumpStyle=none;exitPerimeter=0;" edge="1" parent="1" source="0IGYqATvzg_pEUOGRtzh-38" target="0IGYqATvzg_pEUOGRtzh-38">
          <mxGeometry width="50" height="50" relative="1" as="geometry">
            <mxPoint x="757.3399999999999" y="1214.32" as="sourcePoint" />
            <mxPoint x="771.8599999999999" y="1201" as="targetPoint" />
          </mxGeometry>
        </mxCell>
        <mxCell id="0IGYqATvzg_pEUOGRtzh-40" value="0р." style="text;html=1;align=center;verticalAlign=middle;resizable=0;points=[];autosize=1;strokeColor=none;fillColor=none;fontSize=5;" vertex="1" parent="1">
          <mxGeometry x="753.3399999999999" y="1201" width="30" height="20" as="geometry" />
        </mxCell>
        <mxCell id="0IGYqATvzg_pEUOGRtzh-41" value="" style="endArrow=none;html=1;rounded=0;exitX=0.002;exitY=0.635;exitDx=0;exitDy=0;exitPerimeter=0;entryX=1.005;entryY=0.786;entryDx=0;entryDy=0;entryPerimeter=0;" edge="1" parent="1">
          <mxGeometry width="50" height="50" relative="1" as="geometry">
            <mxPoint x="757.5799999999999" y="1271.1" as="sourcePoint" />
            <mxPoint x="913.115" y="1270.74" as="targetPoint" />
          </mxGeometry>
        </mxCell>
        <mxCell id="0IGYqATvzg_pEUOGRtzh-42" value="1.2.1" style="text;html=1;align=center;verticalAlign=middle;resizable=0;points=[];autosize=1;strokeColor=none;fillColor=none;fontSize=8;" vertex="1" parent="1">
          <mxGeometry x="754.3399999999999" y="1272" width="40" height="20" as="geometry" />
        </mxCell>
        <mxCell id="0IGYqATvzg_pEUOGRtzh-43" value="&lt;p style=&quot;margin: 0cm; text-indent: 35.45pt;&quot; class=&quot;MsoListParagraph&quot;&gt;Создание игровых объектов&lt;br&gt;&lt;/p&gt;" style="text;html=1;align=center;verticalAlign=middle;resizable=0;points=[];autosize=1;strokeColor=none;fillColor=none;fontSize=9;" vertex="1" parent="1">
          <mxGeometry x="716.3399999999999" y="1228" width="190" height="20" as="geometry" />
        </mxCell>
        <mxCell id="0IGYqATvzg_pEUOGRtzh-44" value="" style="endArrow=none;html=1;rounded=0;entryX=0.5;entryY=1;entryDx=0;entryDy=0;" edge="1" parent="1">
          <mxGeometry width="50" height="50" relative="1" as="geometry">
            <mxPoint x="834.78" y="1271" as="sourcePoint" />
            <mxPoint x="834.78" y="1291" as="targetPoint" />
          </mxGeometry>
        </mxCell>
        <mxCell id="0IGYqATvzg_pEUOGRtzh-45" value="" style="rounded=0;whiteSpace=wrap;html=1;gradientColor=none;glass=0;shadow=0;" vertex="1" parent="1">
          <mxGeometry x="953.1199999999999" y="1200" width="155" height="90" as="geometry" />
        </mxCell>
        <mxCell id="0IGYqATvzg_pEUOGRtzh-46" value="" style="endArrow=none;html=1;rounded=0;exitX=0.003;exitY=0.15;exitDx=0;exitDy=0;entryX=0.077;entryY=0;entryDx=0;entryDy=0;entryPerimeter=0;jumpSize=100;endSize=6;jumpStyle=none;exitPerimeter=0;" edge="1" parent="1" source="0IGYqATvzg_pEUOGRtzh-45" target="0IGYqATvzg_pEUOGRtzh-45">
          <mxGeometry width="50" height="50" relative="1" as="geometry">
            <mxPoint x="953.1199999999999" y="1213.32" as="sourcePoint" />
            <mxPoint x="967.6399999999999" y="1200" as="targetPoint" />
          </mxGeometry>
        </mxCell>
        <mxCell id="0IGYqATvzg_pEUOGRtzh-47" value="0р." style="text;html=1;align=center;verticalAlign=middle;resizable=0;points=[];autosize=1;strokeColor=none;fillColor=none;fontSize=5;" vertex="1" parent="1">
          <mxGeometry x="949.1199999999999" y="1200" width="30" height="20" as="geometry" />
        </mxCell>
        <mxCell id="0IGYqATvzg_pEUOGRtzh-48" value="" style="endArrow=none;html=1;rounded=0;exitX=0.002;exitY=0.635;exitDx=0;exitDy=0;exitPerimeter=0;entryX=1.005;entryY=0.786;entryDx=0;entryDy=0;entryPerimeter=0;" edge="1" parent="1">
          <mxGeometry width="50" height="50" relative="1" as="geometry">
            <mxPoint x="953.3599999999999" y="1270.1" as="sourcePoint" />
            <mxPoint x="1108.895" y="1269.74" as="targetPoint" />
          </mxGeometry>
        </mxCell>
        <mxCell id="0IGYqATvzg_pEUOGRtzh-49" value="1.2.2" style="text;html=1;align=center;verticalAlign=middle;resizable=0;points=[];autosize=1;strokeColor=none;fillColor=none;fontSize=8;" vertex="1" parent="1">
          <mxGeometry x="950.1199999999999" y="1271" width="40" height="20" as="geometry" />
        </mxCell>
        <mxCell id="0IGYqATvzg_pEUOGRtzh-50" value="&lt;p style=&quot;margin: 0cm; text-indent: 35.45pt;&quot; class=&quot;MsoListParagraph&quot;&gt;Импорт текстур и ассетов&lt;br&gt;&lt;/p&gt;" style="text;html=1;align=center;verticalAlign=middle;resizable=0;points=[];autosize=1;strokeColor=none;fillColor=none;fontSize=9;" vertex="1" parent="1">
          <mxGeometry x="917.1199999999999" y="1227" width="180" height="20" as="geometry" />
        </mxCell>
        <mxCell id="0IGYqATvzg_pEUOGRtzh-51" value="" style="endArrow=none;html=1;rounded=0;entryX=0.5;entryY=1;entryDx=0;entryDy=0;" edge="1" parent="1">
          <mxGeometry width="50" height="50" relative="1" as="geometry">
            <mxPoint x="1030.56" y="1270" as="sourcePoint" />
            <mxPoint x="1030.56" y="1290" as="targetPoint" />
          </mxGeometry>
        </mxCell>
        <mxCell id="0IGYqATvzg_pEUOGRtzh-52" value="" style="endArrow=classic;html=1;rounded=0;exitX=1;exitY=0.5;exitDx=0;exitDy=0;" edge="1" parent="1" source="0IGYqATvzg_pEUOGRtzh-38" target="0IGYqATvzg_pEUOGRtzh-45">
          <mxGeometry width="50" height="50" relative="1" as="geometry">
            <mxPoint x="917.1199999999999" y="1294" as="sourcePoint" />
            <mxPoint x="957.1199999999999" y="1244" as="targetPoint" />
          </mxGeometry>
        </mxCell>
        <mxCell id="0IGYqATvzg_pEUOGRtzh-53" value="" style="rounded=0;whiteSpace=wrap;html=1;gradientColor=none;glass=0;shadow=0;" vertex="1" parent="1">
          <mxGeometry x="953.1199999999999" y="1323.5" width="155" height="90" as="geometry" />
        </mxCell>
        <mxCell id="0IGYqATvzg_pEUOGRtzh-54" value="" style="endArrow=none;html=1;rounded=0;exitX=0.003;exitY=0.15;exitDx=0;exitDy=0;entryX=0.077;entryY=0;entryDx=0;entryDy=0;entryPerimeter=0;jumpSize=100;endSize=6;jumpStyle=none;exitPerimeter=0;" edge="1" parent="1" source="0IGYqATvzg_pEUOGRtzh-53" target="0IGYqATvzg_pEUOGRtzh-53">
          <mxGeometry width="50" height="50" relative="1" as="geometry">
            <mxPoint x="953.1199999999999" y="1336.82" as="sourcePoint" />
            <mxPoint x="967.6399999999999" y="1323.5" as="targetPoint" />
          </mxGeometry>
        </mxCell>
        <mxCell id="0IGYqATvzg_pEUOGRtzh-55" value="0р." style="text;html=1;align=center;verticalAlign=middle;resizable=0;points=[];autosize=1;strokeColor=none;fillColor=none;fontSize=5;" vertex="1" parent="1">
          <mxGeometry x="949.1199999999999" y="1323.5" width="30" height="20" as="geometry" />
        </mxCell>
        <mxCell id="0IGYqATvzg_pEUOGRtzh-56" value="" style="endArrow=none;html=1;rounded=0;exitX=0.002;exitY=0.635;exitDx=0;exitDy=0;exitPerimeter=0;entryX=1.005;entryY=0.786;entryDx=0;entryDy=0;entryPerimeter=0;" edge="1" parent="1">
          <mxGeometry width="50" height="50" relative="1" as="geometry">
            <mxPoint x="953.3599999999999" y="1393.6" as="sourcePoint" />
            <mxPoint x="1108.895" y="1393.24" as="targetPoint" />
          </mxGeometry>
        </mxCell>
        <mxCell id="0IGYqATvzg_pEUOGRtzh-57" value="1.2.3" style="text;html=1;align=center;verticalAlign=middle;resizable=0;points=[];autosize=1;strokeColor=none;fillColor=none;fontSize=8;" vertex="1" parent="1">
          <mxGeometry x="950.1199999999999" y="1394.5" width="40" height="20" as="geometry" />
        </mxCell>
        <mxCell id="0IGYqATvzg_pEUOGRtzh-58" value="&lt;p style=&quot;margin: 0cm; text-indent: 35.45pt;&quot; class=&quot;MsoListParagraph&quot;&gt;Создание персонажей&lt;/p&gt;&lt;p style=&quot;margin: 0cm; text-indent: 35.45pt;&quot; class=&quot;MsoListParagraph&quot;&gt;&amp;nbsp;и их анимаций&lt;br&gt;&lt;/p&gt;" style="text;html=1;align=center;verticalAlign=middle;resizable=0;points=[];autosize=1;strokeColor=none;fillColor=none;fontSize=9;" vertex="1" parent="1">
          <mxGeometry x="927.1199999999999" y="1340.5" width="160" height="40" as="geometry" />
        </mxCell>
        <mxCell id="0IGYqATvzg_pEUOGRtzh-59" value="" style="endArrow=none;html=1;rounded=0;entryX=0.5;entryY=1;entryDx=0;entryDy=0;" edge="1" parent="1">
          <mxGeometry width="50" height="50" relative="1" as="geometry">
            <mxPoint x="1030.56" y="1393.5" as="sourcePoint" />
            <mxPoint x="1030.56" y="1413.5" as="targetPoint" />
          </mxGeometry>
        </mxCell>
        <mxCell id="0IGYqATvzg_pEUOGRtzh-60" value="" style="endArrow=classic;html=1;rounded=0;exitX=0.5;exitY=1;exitDx=0;exitDy=0;entryX=0.5;entryY=0;entryDx=0;entryDy=0;" edge="1" parent="1">
          <mxGeometry width="50" height="50" relative="1" as="geometry">
            <mxPoint x="1044.62" y="1289" as="sourcePoint" />
            <mxPoint x="1044.62" y="1322.5" as="targetPoint" />
          </mxGeometry>
        </mxCell>
        <mxCell id="0IGYqATvzg_pEUOGRtzh-61" value="" style="rounded=0;whiteSpace=wrap;html=1;gradientColor=none;glass=0;shadow=0;" vertex="1" parent="1">
          <mxGeometry x="756.56" y="1324" width="155" height="90" as="geometry" />
        </mxCell>
        <mxCell id="0IGYqATvzg_pEUOGRtzh-62" value="" style="endArrow=none;html=1;rounded=0;exitX=0.003;exitY=0.15;exitDx=0;exitDy=0;entryX=0.077;entryY=0;entryDx=0;entryDy=0;entryPerimeter=0;jumpSize=100;endSize=6;jumpStyle=none;exitPerimeter=0;" edge="1" parent="1" source="0IGYqATvzg_pEUOGRtzh-61" target="0IGYqATvzg_pEUOGRtzh-61">
          <mxGeometry width="50" height="50" relative="1" as="geometry">
            <mxPoint x="756.56" y="1337.32" as="sourcePoint" />
            <mxPoint x="771.0799999999999" y="1324" as="targetPoint" />
          </mxGeometry>
        </mxCell>
        <mxCell id="0IGYqATvzg_pEUOGRtzh-63" value="0р." style="text;html=1;align=center;verticalAlign=middle;resizable=0;points=[];autosize=1;strokeColor=none;fillColor=none;fontSize=5;" vertex="1" parent="1">
          <mxGeometry x="752.56" y="1324" width="30" height="20" as="geometry" />
        </mxCell>
        <mxCell id="0IGYqATvzg_pEUOGRtzh-64" value="" style="endArrow=none;html=1;rounded=0;exitX=0.002;exitY=0.635;exitDx=0;exitDy=0;exitPerimeter=0;entryX=1.005;entryY=0.786;entryDx=0;entryDy=0;entryPerimeter=0;" edge="1" parent="1">
          <mxGeometry width="50" height="50" relative="1" as="geometry">
            <mxPoint x="756.8" y="1394.1" as="sourcePoint" />
            <mxPoint x="912.335" y="1393.74" as="targetPoint" />
          </mxGeometry>
        </mxCell>
        <mxCell id="0IGYqATvzg_pEUOGRtzh-65" value="1.2.4" style="text;html=1;align=center;verticalAlign=middle;resizable=0;points=[];autosize=1;strokeColor=none;fillColor=none;fontSize=8;" vertex="1" parent="1">
          <mxGeometry x="753.56" y="1395" width="40" height="20" as="geometry" />
        </mxCell>
        <mxCell id="0IGYqATvzg_pEUOGRtzh-66" value="&lt;p style=&quot;margin: 0cm; text-indent: 35.45pt;&quot; class=&quot;MsoListParagraph&quot;&gt;Загрузка и настройка&lt;/p&gt;&lt;p style=&quot;margin: 0cm; text-indent: 35.45pt;&quot; class=&quot;MsoListParagraph&quot;&gt;&amp;nbsp;звуковых эффектов&lt;br&gt;&lt;/p&gt;" style="text;html=1;align=center;verticalAlign=middle;resizable=0;points=[];autosize=1;strokeColor=none;fillColor=none;fontSize=9;" vertex="1" parent="1">
          <mxGeometry x="730.56" y="1341" width="160" height="40" as="geometry" />
        </mxCell>
        <mxCell id="0IGYqATvzg_pEUOGRtzh-67" value="" style="endArrow=none;html=1;rounded=0;entryX=0.5;entryY=1;entryDx=0;entryDy=0;" edge="1" parent="1">
          <mxGeometry width="50" height="50" relative="1" as="geometry">
            <mxPoint x="834" y="1394" as="sourcePoint" />
            <mxPoint x="834" y="1414" as="targetPoint" />
          </mxGeometry>
        </mxCell>
        <mxCell id="0IGYqATvzg_pEUOGRtzh-68" value="" style="endArrow=none;html=1;rounded=0;exitX=1;exitY=0.5;exitDx=0;exitDy=0;startArrow=classic;startFill=1;endFill=0;" edge="1" parent="1">
          <mxGeometry width="50" height="50" relative="1" as="geometry">
            <mxPoint x="911.56" y="1368.1399999999999" as="sourcePoint" />
            <mxPoint x="952.56" y="1368.1399999999999" as="targetPoint" />
          </mxGeometry>
        </mxCell>
        <mxCell id="0IGYqATvzg_pEUOGRtzh-69" value="" style="endArrow=none;html=1;rounded=0;entryX=0;entryY=0.5;entryDx=0;entryDy=0;startArrow=classic;startFill=1;endFill=0;exitX=1;exitY=0.5;exitDx=0;exitDy=0;" edge="1" parent="1" source="0IGYqATvzg_pEUOGRtzh-216">
          <mxGeometry width="50" height="50" relative="1" as="geometry">
            <mxPoint x="656.56" y="1372.5" as="sourcePoint" />
            <mxPoint x="756.56" y="1372.5" as="targetPoint" />
          </mxGeometry>
        </mxCell>
        <mxCell id="0IGYqATvzg_pEUOGRtzh-70" value="&lt;p style=&quot;margin-bottom: 0cm; line-height: 30%;&quot; class=&quot;MsoNormal&quot;&gt;Игровые объекты,&amp;nbsp;&lt;/p&gt;&lt;p style=&quot;margin-bottom: 0cm; line-height: 30%;&quot; class=&quot;MsoNormal&quot;&gt;импортированные ассеты,&lt;/p&gt;&lt;p style=&quot;margin-bottom: 0cm; line-height: 30%;&quot; class=&quot;MsoNormal&quot;&gt;&amp;nbsp;готовые персонажи и анимации.&lt;br&gt;&lt;/p&gt;" style="text;html=1;align=center;verticalAlign=middle;resizable=0;points=[];autosize=1;strokeColor=none;fillColor=none;fontSize=7;" vertex="1" parent="1">
          <mxGeometry x="638.56" y="1323.5" width="130" height="40" as="geometry" />
        </mxCell>
        <mxCell id="0IGYqATvzg_pEUOGRtzh-71" value="" style="rounded=0;whiteSpace=wrap;html=1;gradientColor=none;glass=0;shadow=0;" vertex="1" parent="1">
          <mxGeometry x="207.33999999999997" y="1475" width="155" height="90" as="geometry" />
        </mxCell>
        <mxCell id="0IGYqATvzg_pEUOGRtzh-72" value="" style="endArrow=none;html=1;rounded=0;exitX=0.003;exitY=0.15;exitDx=0;exitDy=0;entryX=0.077;entryY=0;entryDx=0;entryDy=0;entryPerimeter=0;jumpSize=100;endSize=6;jumpStyle=none;exitPerimeter=0;" edge="1" parent="1" source="0IGYqATvzg_pEUOGRtzh-71" target="0IGYqATvzg_pEUOGRtzh-71">
          <mxGeometry width="50" height="50" relative="1" as="geometry">
            <mxPoint x="207.33999999999997" y="1488.32" as="sourcePoint" />
            <mxPoint x="221.85999999999996" y="1475" as="targetPoint" />
          </mxGeometry>
        </mxCell>
        <mxCell id="0IGYqATvzg_pEUOGRtzh-73" value="0р." style="text;html=1;align=center;verticalAlign=middle;resizable=0;points=[];autosize=1;strokeColor=none;fillColor=none;fontSize=5;" vertex="1" parent="1">
          <mxGeometry x="203.33999999999997" y="1475" width="30" height="20" as="geometry" />
        </mxCell>
        <mxCell id="0IGYqATvzg_pEUOGRtzh-74" value="" style="endArrow=none;html=1;rounded=0;exitX=0.002;exitY=0.635;exitDx=0;exitDy=0;exitPerimeter=0;entryX=1.005;entryY=0.786;entryDx=0;entryDy=0;entryPerimeter=0;" edge="1" parent="1">
          <mxGeometry width="50" height="50" relative="1" as="geometry">
            <mxPoint x="207.57999999999998" y="1545.1" as="sourcePoint" />
            <mxPoint x="363.1150000000001" y="1544.74" as="targetPoint" />
          </mxGeometry>
        </mxCell>
        <mxCell id="0IGYqATvzg_pEUOGRtzh-75" value="2.1.1" style="text;html=1;align=center;verticalAlign=middle;resizable=0;points=[];autosize=1;strokeColor=none;fillColor=none;fontSize=8;" vertex="1" parent="1">
          <mxGeometry x="204.33999999999997" y="1546" width="40" height="20" as="geometry" />
        </mxCell>
        <mxCell id="0IGYqATvzg_pEUOGRtzh-76" value="&lt;p style=&quot;margin: 0cm; text-indent: 35.45pt;&quot; class=&quot;MsoListParagraph&quot;&gt;Создание персонажей&lt;br&gt;&lt;/p&gt;" style="text;html=1;align=center;verticalAlign=middle;resizable=0;points=[];autosize=1;strokeColor=none;fillColor=none;fontSize=9;" vertex="1" parent="1">
          <mxGeometry x="181.33999999999997" y="1502" width="160" height="20" as="geometry" />
        </mxCell>
        <mxCell id="0IGYqATvzg_pEUOGRtzh-77" value="" style="endArrow=none;html=1;rounded=0;entryX=0.5;entryY=1;entryDx=0;entryDy=0;" edge="1" parent="1">
          <mxGeometry width="50" height="50" relative="1" as="geometry">
            <mxPoint x="284.78000000000003" y="1545" as="sourcePoint" />
            <mxPoint x="284.78000000000003" y="1565" as="targetPoint" />
          </mxGeometry>
        </mxCell>
        <mxCell id="0IGYqATvzg_pEUOGRtzh-78" value="" style="rounded=0;whiteSpace=wrap;html=1;gradientColor=none;glass=0;shadow=0;" vertex="1" parent="1">
          <mxGeometry x="403.12" y="1474" width="155" height="90" as="geometry" />
        </mxCell>
        <mxCell id="0IGYqATvzg_pEUOGRtzh-79" value="" style="endArrow=none;html=1;rounded=0;exitX=0.003;exitY=0.15;exitDx=0;exitDy=0;entryX=0.077;entryY=0;entryDx=0;entryDy=0;entryPerimeter=0;jumpSize=100;endSize=6;jumpStyle=none;exitPerimeter=0;" edge="1" parent="1" source="0IGYqATvzg_pEUOGRtzh-78" target="0IGYqATvzg_pEUOGRtzh-78">
          <mxGeometry width="50" height="50" relative="1" as="geometry">
            <mxPoint x="403.12" y="1487.32" as="sourcePoint" />
            <mxPoint x="417.64" y="1474" as="targetPoint" />
          </mxGeometry>
        </mxCell>
        <mxCell id="0IGYqATvzg_pEUOGRtzh-80" value="0р." style="text;html=1;align=center;verticalAlign=middle;resizable=0;points=[];autosize=1;strokeColor=none;fillColor=none;fontSize=5;" vertex="1" parent="1">
          <mxGeometry x="399.12" y="1474" width="30" height="20" as="geometry" />
        </mxCell>
        <mxCell id="0IGYqATvzg_pEUOGRtzh-81" value="" style="endArrow=none;html=1;rounded=0;exitX=0.002;exitY=0.635;exitDx=0;exitDy=0;exitPerimeter=0;entryX=1.005;entryY=0.786;entryDx=0;entryDy=0;entryPerimeter=0;" edge="1" parent="1">
          <mxGeometry width="50" height="50" relative="1" as="geometry">
            <mxPoint x="403.36" y="1544.1" as="sourcePoint" />
            <mxPoint x="558.895" y="1543.74" as="targetPoint" />
          </mxGeometry>
        </mxCell>
        <mxCell id="0IGYqATvzg_pEUOGRtzh-82" value="2.1.2" style="text;html=1;align=center;verticalAlign=middle;resizable=0;points=[];autosize=1;strokeColor=none;fillColor=none;fontSize=8;" vertex="1" parent="1">
          <mxGeometry x="400.12" y="1545" width="40" height="20" as="geometry" />
        </mxCell>
        <mxCell id="0IGYqATvzg_pEUOGRtzh-83" value="" style="endArrow=none;html=1;rounded=0;entryX=0.5;entryY=1;entryDx=0;entryDy=0;" edge="1" parent="1">
          <mxGeometry width="50" height="50" relative="1" as="geometry">
            <mxPoint x="480.56" y="1544" as="sourcePoint" />
            <mxPoint x="480.56" y="1564" as="targetPoint" />
          </mxGeometry>
        </mxCell>
        <mxCell id="0IGYqATvzg_pEUOGRtzh-84" value="" style="endArrow=classic;html=1;rounded=0;exitX=1;exitY=0.5;exitDx=0;exitDy=0;" edge="1" parent="1" source="0IGYqATvzg_pEUOGRtzh-71" target="0IGYqATvzg_pEUOGRtzh-78">
          <mxGeometry width="50" height="50" relative="1" as="geometry">
            <mxPoint x="367.12" y="1568" as="sourcePoint" />
            <mxPoint x="407.12" y="1518" as="targetPoint" />
          </mxGeometry>
        </mxCell>
        <mxCell id="0IGYqATvzg_pEUOGRtzh-85" value="" style="rounded=0;whiteSpace=wrap;html=1;gradientColor=none;glass=0;shadow=0;" vertex="1" parent="1">
          <mxGeometry x="403.12" y="1597.5" width="155" height="90" as="geometry" />
        </mxCell>
        <mxCell id="0IGYqATvzg_pEUOGRtzh-86" value="" style="endArrow=none;html=1;rounded=0;exitX=0.003;exitY=0.15;exitDx=0;exitDy=0;entryX=0.077;entryY=0;entryDx=0;entryDy=0;entryPerimeter=0;jumpSize=100;endSize=6;jumpStyle=none;exitPerimeter=0;" edge="1" parent="1" source="0IGYqATvzg_pEUOGRtzh-85" target="0IGYqATvzg_pEUOGRtzh-85">
          <mxGeometry width="50" height="50" relative="1" as="geometry">
            <mxPoint x="403.12" y="1610.82" as="sourcePoint" />
            <mxPoint x="417.64" y="1597.5" as="targetPoint" />
          </mxGeometry>
        </mxCell>
        <mxCell id="0IGYqATvzg_pEUOGRtzh-87" value="0р." style="text;html=1;align=center;verticalAlign=middle;resizable=0;points=[];autosize=1;strokeColor=none;fillColor=none;fontSize=5;" vertex="1" parent="1">
          <mxGeometry x="399.12" y="1597.5" width="30" height="20" as="geometry" />
        </mxCell>
        <mxCell id="0IGYqATvzg_pEUOGRtzh-88" value="" style="endArrow=none;html=1;rounded=0;exitX=0.002;exitY=0.635;exitDx=0;exitDy=0;exitPerimeter=0;entryX=1.005;entryY=0.786;entryDx=0;entryDy=0;entryPerimeter=0;" edge="1" parent="1">
          <mxGeometry width="50" height="50" relative="1" as="geometry">
            <mxPoint x="403.36" y="1667.6" as="sourcePoint" />
            <mxPoint x="558.895" y="1667.24" as="targetPoint" />
          </mxGeometry>
        </mxCell>
        <mxCell id="0IGYqATvzg_pEUOGRtzh-89" value="2.1.3" style="text;html=1;align=center;verticalAlign=middle;resizable=0;points=[];autosize=1;strokeColor=none;fillColor=none;fontSize=8;" vertex="1" parent="1">
          <mxGeometry x="400.12" y="1668.5" width="40" height="20" as="geometry" />
        </mxCell>
        <mxCell id="0IGYqATvzg_pEUOGRtzh-90" value="&lt;p style=&quot;border-color: var(--border-color); margin: 0cm; text-indent: 35.45pt;&quot; class=&quot;MsoListParagraph&quot;&gt;Реализация управления&lt;/p&gt;&lt;p style=&quot;border-color: var(--border-color); margin: 0cm; text-indent: 35.45pt;&quot; class=&quot;MsoListParagraph&quot;&gt;&amp;nbsp;персонажами&lt;br&gt;&lt;/p&gt;" style="text;html=1;align=center;verticalAlign=middle;resizable=0;points=[];autosize=1;strokeColor=none;fillColor=none;fontSize=9;" vertex="1" parent="1">
          <mxGeometry x="372.12" y="1614.5" width="170" height="40" as="geometry" />
        </mxCell>
        <mxCell id="0IGYqATvzg_pEUOGRtzh-91" value="" style="endArrow=none;html=1;rounded=0;entryX=0.5;entryY=1;entryDx=0;entryDy=0;" edge="1" parent="1">
          <mxGeometry width="50" height="50" relative="1" as="geometry">
            <mxPoint x="480.56" y="1667.5" as="sourcePoint" />
            <mxPoint x="480.56" y="1687.5" as="targetPoint" />
          </mxGeometry>
        </mxCell>
        <mxCell id="0IGYqATvzg_pEUOGRtzh-92" value="" style="endArrow=classic;html=1;rounded=0;exitX=0.5;exitY=1;exitDx=0;exitDy=0;entryX=0.5;entryY=0;entryDx=0;entryDy=0;" edge="1" parent="1">
          <mxGeometry width="50" height="50" relative="1" as="geometry">
            <mxPoint x="494.61999999999995" y="1563" as="sourcePoint" />
            <mxPoint x="494.61999999999995" y="1596.5" as="targetPoint" />
          </mxGeometry>
        </mxCell>
        <mxCell id="0IGYqATvzg_pEUOGRtzh-93" value="" style="rounded=0;whiteSpace=wrap;html=1;gradientColor=none;glass=0;shadow=0;" vertex="1" parent="1">
          <mxGeometry x="206.56" y="1598" width="155" height="90" as="geometry" />
        </mxCell>
        <mxCell id="0IGYqATvzg_pEUOGRtzh-94" value="" style="endArrow=none;html=1;rounded=0;exitX=0.003;exitY=0.15;exitDx=0;exitDy=0;entryX=0.077;entryY=0;entryDx=0;entryDy=0;entryPerimeter=0;jumpSize=100;endSize=6;jumpStyle=none;exitPerimeter=0;" edge="1" parent="1" source="0IGYqATvzg_pEUOGRtzh-93" target="0IGYqATvzg_pEUOGRtzh-93">
          <mxGeometry width="50" height="50" relative="1" as="geometry">
            <mxPoint x="206.56" y="1611.32" as="sourcePoint" />
            <mxPoint x="221.07999999999998" y="1598" as="targetPoint" />
          </mxGeometry>
        </mxCell>
        <mxCell id="0IGYqATvzg_pEUOGRtzh-95" value="0р." style="text;html=1;align=center;verticalAlign=middle;resizable=0;points=[];autosize=1;strokeColor=none;fillColor=none;fontSize=5;" vertex="1" parent="1">
          <mxGeometry x="202.56" y="1598" width="30" height="20" as="geometry" />
        </mxCell>
        <mxCell id="0IGYqATvzg_pEUOGRtzh-96" value="" style="endArrow=none;html=1;rounded=0;exitX=0.002;exitY=0.635;exitDx=0;exitDy=0;exitPerimeter=0;entryX=1.005;entryY=0.786;entryDx=0;entryDy=0;entryPerimeter=0;" edge="1" parent="1">
          <mxGeometry width="50" height="50" relative="1" as="geometry">
            <mxPoint x="206.8" y="1668.1" as="sourcePoint" />
            <mxPoint x="362.3350000000001" y="1667.74" as="targetPoint" />
          </mxGeometry>
        </mxCell>
        <mxCell id="0IGYqATvzg_pEUOGRtzh-97" value="2.1.4" style="text;html=1;align=center;verticalAlign=middle;resizable=0;points=[];autosize=1;strokeColor=none;fillColor=none;fontSize=8;" vertex="1" parent="1">
          <mxGeometry x="203.56" y="1669" width="40" height="20" as="geometry" />
        </mxCell>
        <mxCell id="0IGYqATvzg_pEUOGRtzh-98" value="&lt;p style=&quot;border-color: var(--border-color); margin: 0cm; text-indent: 35.45pt;&quot; class=&quot;MsoListParagraph&quot;&gt;Интеграция с физикой&lt;/p&gt;&lt;p style=&quot;border-color: var(--border-color); margin: 0cm; text-indent: 35.45pt;&quot; class=&quot;MsoListParagraph&quot;&gt;&amp;nbsp;и коллизиями&lt;br&gt;&lt;/p&gt;" style="text;html=1;align=center;verticalAlign=middle;resizable=0;points=[];autosize=1;strokeColor=none;fillColor=none;fontSize=9;" vertex="1" parent="1">
          <mxGeometry x="180.56" y="1617" width="160" height="40" as="geometry" />
        </mxCell>
        <mxCell id="0IGYqATvzg_pEUOGRtzh-99" value="" style="endArrow=none;html=1;rounded=0;entryX=0.5;entryY=1;entryDx=0;entryDy=0;" edge="1" parent="1">
          <mxGeometry width="50" height="50" relative="1" as="geometry">
            <mxPoint x="284" y="1668" as="sourcePoint" />
            <mxPoint x="284" y="1688" as="targetPoint" />
          </mxGeometry>
        </mxCell>
        <mxCell id="0IGYqATvzg_pEUOGRtzh-100" value="" style="endArrow=none;html=1;rounded=0;exitX=1;exitY=0.5;exitDx=0;exitDy=0;startArrow=classic;startFill=1;endFill=0;" edge="1" parent="1">
          <mxGeometry width="50" height="50" relative="1" as="geometry">
            <mxPoint x="361.56" y="1642.1399999999999" as="sourcePoint" />
            <mxPoint x="402.56" y="1642.1399999999999" as="targetPoint" />
          </mxGeometry>
        </mxCell>
        <mxCell id="0IGYqATvzg_pEUOGRtzh-101" value="Реализованное управление&lt;br&gt;&amp;nbsp;персонажами,&lt;br&gt;&amp;nbsp;интегрированная физика." style="text;html=1;align=center;verticalAlign=middle;resizable=0;points=[];autosize=1;strokeColor=none;fillColor=none;fontSize=7;" vertex="1" parent="1">
          <mxGeometry x="93.56" y="1593.5" width="110" height="40" as="geometry" />
        </mxCell>
        <mxCell id="0IGYqATvzg_pEUOGRtzh-102" value="Макет сцены, игровые объекты&lt;br&gt;&amp;nbsp;и ассеты&lt;br&gt;&amp;nbsp;игровой жанр и стиль." style="text;html=1;align=center;verticalAlign=middle;resizable=0;points=[];autosize=1;strokeColor=none;fillColor=none;fontSize=7;" vertex="1" parent="1">
          <mxGeometry x="91.56" y="1475" width="130" height="40" as="geometry" />
        </mxCell>
        <mxCell id="0IGYqATvzg_pEUOGRtzh-103" value="Разработка их анимаций" style="text;html=1;align=center;verticalAlign=middle;resizable=0;points=[];autosize=1;strokeColor=none;fillColor=none;fontSize=9;" vertex="1" parent="1">
          <mxGeometry x="414.56" y="1502" width="130" height="20" as="geometry" />
        </mxCell>
        <mxCell id="0IGYqATvzg_pEUOGRtzh-104" value="" style="rounded=0;whiteSpace=wrap;html=1;gradientColor=none;glass=0;shadow=0;" vertex="1" parent="1">
          <mxGeometry x="762.3399999999999" y="1473.5" width="155" height="90" as="geometry" />
        </mxCell>
        <mxCell id="0IGYqATvzg_pEUOGRtzh-105" value="" style="endArrow=none;html=1;rounded=0;exitX=0.003;exitY=0.15;exitDx=0;exitDy=0;entryX=0.077;entryY=0;entryDx=0;entryDy=0;entryPerimeter=0;jumpSize=100;endSize=6;jumpStyle=none;exitPerimeter=0;" edge="1" parent="1" source="0IGYqATvzg_pEUOGRtzh-104" target="0IGYqATvzg_pEUOGRtzh-104">
          <mxGeometry width="50" height="50" relative="1" as="geometry">
            <mxPoint x="762.3399999999999" y="1486.82" as="sourcePoint" />
            <mxPoint x="776.8599999999999" y="1473.5" as="targetPoint" />
          </mxGeometry>
        </mxCell>
        <mxCell id="0IGYqATvzg_pEUOGRtzh-106" value="0р." style="text;html=1;align=center;verticalAlign=middle;resizable=0;points=[];autosize=1;strokeColor=none;fillColor=none;fontSize=5;" vertex="1" parent="1">
          <mxGeometry x="758.3399999999999" y="1473.5" width="30" height="20" as="geometry" />
        </mxCell>
        <mxCell id="0IGYqATvzg_pEUOGRtzh-107" value="" style="endArrow=none;html=1;rounded=0;exitX=0.002;exitY=0.635;exitDx=0;exitDy=0;exitPerimeter=0;entryX=1.005;entryY=0.786;entryDx=0;entryDy=0;entryPerimeter=0;" edge="1" parent="1">
          <mxGeometry width="50" height="50" relative="1" as="geometry">
            <mxPoint x="762.5799999999999" y="1543.6" as="sourcePoint" />
            <mxPoint x="918.115" y="1543.24" as="targetPoint" />
          </mxGeometry>
        </mxCell>
        <mxCell id="0IGYqATvzg_pEUOGRtzh-108" value="2.2.1" style="text;html=1;align=center;verticalAlign=middle;resizable=0;points=[];autosize=1;strokeColor=none;fillColor=none;fontSize=8;" vertex="1" parent="1">
          <mxGeometry x="759.3399999999999" y="1544.5" width="40" height="20" as="geometry" />
        </mxCell>
        <mxCell id="0IGYqATvzg_pEUOGRtzh-109" value="&lt;p style=&quot;margin: 0cm; text-indent: 35.45pt;&quot; class=&quot;MsoListParagraph&quot;&gt;Определение состояний&lt;/p&gt;&lt;p style=&quot;margin: 0cm; text-indent: 35.45pt;&quot; class=&quot;MsoListParagraph&quot;&gt;&amp;nbsp;персонажей&lt;br&gt;&lt;/p&gt;" style="text;html=1;align=center;verticalAlign=middle;resizable=0;points=[];autosize=1;strokeColor=none;fillColor=none;fontSize=9;" vertex="1" parent="1">
          <mxGeometry x="731.3399999999999" y="1490.5" width="170" height="40" as="geometry" />
        </mxCell>
        <mxCell id="0IGYqATvzg_pEUOGRtzh-110" value="" style="endArrow=none;html=1;rounded=0;entryX=0.5;entryY=1;entryDx=0;entryDy=0;" edge="1" parent="1">
          <mxGeometry width="50" height="50" relative="1" as="geometry">
            <mxPoint x="839.78" y="1543.5" as="sourcePoint" />
            <mxPoint x="839.78" y="1563.5" as="targetPoint" />
          </mxGeometry>
        </mxCell>
        <mxCell id="0IGYqATvzg_pEUOGRtzh-111" value="" style="rounded=0;whiteSpace=wrap;html=1;gradientColor=none;glass=0;shadow=0;" vertex="1" parent="1">
          <mxGeometry x="958.1199999999999" y="1472.5" width="155" height="90" as="geometry" />
        </mxCell>
        <mxCell id="0IGYqATvzg_pEUOGRtzh-112" value="" style="endArrow=none;html=1;rounded=0;exitX=0.003;exitY=0.15;exitDx=0;exitDy=0;entryX=0.077;entryY=0;entryDx=0;entryDy=0;entryPerimeter=0;jumpSize=100;endSize=6;jumpStyle=none;exitPerimeter=0;" edge="1" parent="1" source="0IGYqATvzg_pEUOGRtzh-111" target="0IGYqATvzg_pEUOGRtzh-111">
          <mxGeometry width="50" height="50" relative="1" as="geometry">
            <mxPoint x="958.1199999999999" y="1485.82" as="sourcePoint" />
            <mxPoint x="972.6399999999999" y="1472.5" as="targetPoint" />
          </mxGeometry>
        </mxCell>
        <mxCell id="0IGYqATvzg_pEUOGRtzh-113" value="0р." style="text;html=1;align=center;verticalAlign=middle;resizable=0;points=[];autosize=1;strokeColor=none;fillColor=none;fontSize=5;" vertex="1" parent="1">
          <mxGeometry x="954.1199999999999" y="1472.5" width="30" height="20" as="geometry" />
        </mxCell>
        <mxCell id="0IGYqATvzg_pEUOGRtzh-114" value="" style="endArrow=none;html=1;rounded=0;exitX=0.002;exitY=0.635;exitDx=0;exitDy=0;exitPerimeter=0;entryX=1.005;entryY=0.786;entryDx=0;entryDy=0;entryPerimeter=0;" edge="1" parent="1">
          <mxGeometry width="50" height="50" relative="1" as="geometry">
            <mxPoint x="958.3599999999999" y="1542.6" as="sourcePoint" />
            <mxPoint x="1113.895" y="1542.24" as="targetPoint" />
          </mxGeometry>
        </mxCell>
        <mxCell id="0IGYqATvzg_pEUOGRtzh-115" value="2.2.2" style="text;html=1;align=center;verticalAlign=middle;resizable=0;points=[];autosize=1;strokeColor=none;fillColor=none;fontSize=8;" vertex="1" parent="1">
          <mxGeometry x="955.1199999999999" y="1543.5" width="40" height="20" as="geometry" />
        </mxCell>
        <mxCell id="0IGYqATvzg_pEUOGRtzh-116" value="" style="endArrow=none;html=1;rounded=0;entryX=0.5;entryY=1;entryDx=0;entryDy=0;" edge="1" parent="1">
          <mxGeometry width="50" height="50" relative="1" as="geometry">
            <mxPoint x="1035.56" y="1542.5" as="sourcePoint" />
            <mxPoint x="1035.56" y="1562.5" as="targetPoint" />
          </mxGeometry>
        </mxCell>
        <mxCell id="0IGYqATvzg_pEUOGRtzh-117" value="" style="endArrow=classic;html=1;rounded=0;exitX=1;exitY=0.5;exitDx=0;exitDy=0;" edge="1" parent="1" source="0IGYqATvzg_pEUOGRtzh-104" target="0IGYqATvzg_pEUOGRtzh-111">
          <mxGeometry width="50" height="50" relative="1" as="geometry">
            <mxPoint x="922.1199999999999" y="1566.5" as="sourcePoint" />
            <mxPoint x="962.1199999999999" y="1516.5" as="targetPoint" />
          </mxGeometry>
        </mxCell>
        <mxCell id="0IGYqATvzg_pEUOGRtzh-118" value="" style="rounded=0;whiteSpace=wrap;html=1;gradientColor=none;glass=0;shadow=0;" vertex="1" parent="1">
          <mxGeometry x="958.1199999999999" y="1596" width="155" height="90" as="geometry" />
        </mxCell>
        <mxCell id="0IGYqATvzg_pEUOGRtzh-119" value="" style="endArrow=none;html=1;rounded=0;exitX=0.003;exitY=0.15;exitDx=0;exitDy=0;entryX=0.077;entryY=0;entryDx=0;entryDy=0;entryPerimeter=0;jumpSize=100;endSize=6;jumpStyle=none;exitPerimeter=0;" edge="1" parent="1" source="0IGYqATvzg_pEUOGRtzh-118" target="0IGYqATvzg_pEUOGRtzh-118">
          <mxGeometry width="50" height="50" relative="1" as="geometry">
            <mxPoint x="958.1199999999999" y="1609.32" as="sourcePoint" />
            <mxPoint x="972.6399999999999" y="1596" as="targetPoint" />
          </mxGeometry>
        </mxCell>
        <mxCell id="0IGYqATvzg_pEUOGRtzh-120" value="0р." style="text;html=1;align=center;verticalAlign=middle;resizable=0;points=[];autosize=1;strokeColor=none;fillColor=none;fontSize=5;" vertex="1" parent="1">
          <mxGeometry x="954.1199999999999" y="1596" width="30" height="20" as="geometry" />
        </mxCell>
        <mxCell id="0IGYqATvzg_pEUOGRtzh-121" value="" style="endArrow=none;html=1;rounded=0;exitX=0.002;exitY=0.635;exitDx=0;exitDy=0;exitPerimeter=0;entryX=1.005;entryY=0.786;entryDx=0;entryDy=0;entryPerimeter=0;" edge="1" parent="1">
          <mxGeometry width="50" height="50" relative="1" as="geometry">
            <mxPoint x="958.3599999999999" y="1666.1" as="sourcePoint" />
            <mxPoint x="1113.895" y="1665.74" as="targetPoint" />
          </mxGeometry>
        </mxCell>
        <mxCell id="0IGYqATvzg_pEUOGRtzh-122" value="2.2.3" style="text;html=1;align=center;verticalAlign=middle;resizable=0;points=[];autosize=1;strokeColor=none;fillColor=none;fontSize=8;" vertex="1" parent="1">
          <mxGeometry x="955.1199999999999" y="1667" width="40" height="20" as="geometry" />
        </mxCell>
        <mxCell id="0IGYqATvzg_pEUOGRtzh-123" value="&lt;p style=&quot;border-color: var(--border-color); margin: 0cm; text-indent: 35.45pt;&quot; class=&quot;MsoListParagraph&quot;&gt;Установка переходов&lt;/p&gt;&lt;p style=&quot;border-color: var(--border-color); margin: 0cm; text-indent: 35.45pt;&quot; class=&quot;MsoListParagraph&quot;&gt;&amp;nbsp;между анимациями&lt;br&gt;&lt;/p&gt;" style="text;html=1;align=center;verticalAlign=middle;resizable=0;points=[];autosize=1;strokeColor=none;fillColor=none;fontSize=9;" vertex="1" parent="1">
          <mxGeometry x="932.1199999999999" y="1613" width="160" height="40" as="geometry" />
        </mxCell>
        <mxCell id="0IGYqATvzg_pEUOGRtzh-124" value="" style="endArrow=none;html=1;rounded=0;entryX=0.5;entryY=1;entryDx=0;entryDy=0;" edge="1" parent="1">
          <mxGeometry width="50" height="50" relative="1" as="geometry">
            <mxPoint x="1035.56" y="1666" as="sourcePoint" />
            <mxPoint x="1035.56" y="1686" as="targetPoint" />
          </mxGeometry>
        </mxCell>
        <mxCell id="0IGYqATvzg_pEUOGRtzh-125" value="" style="endArrow=classic;html=1;rounded=0;exitX=0.5;exitY=1;exitDx=0;exitDy=0;entryX=0.5;entryY=0;entryDx=0;entryDy=0;" edge="1" parent="1">
          <mxGeometry width="50" height="50" relative="1" as="geometry">
            <mxPoint x="1049.62" y="1561.5" as="sourcePoint" />
            <mxPoint x="1049.62" y="1595" as="targetPoint" />
          </mxGeometry>
        </mxCell>
        <mxCell id="0IGYqATvzg_pEUOGRtzh-126" value="" style="rounded=0;whiteSpace=wrap;html=1;gradientColor=none;glass=0;shadow=0;" vertex="1" parent="1">
          <mxGeometry x="761.56" y="1596.5" width="155" height="90" as="geometry" />
        </mxCell>
        <mxCell id="0IGYqATvzg_pEUOGRtzh-127" value="" style="endArrow=none;html=1;rounded=0;exitX=0.003;exitY=0.15;exitDx=0;exitDy=0;entryX=0.077;entryY=0;entryDx=0;entryDy=0;entryPerimeter=0;jumpSize=100;endSize=6;jumpStyle=none;exitPerimeter=0;" edge="1" parent="1" source="0IGYqATvzg_pEUOGRtzh-126" target="0IGYqATvzg_pEUOGRtzh-126">
          <mxGeometry width="50" height="50" relative="1" as="geometry">
            <mxPoint x="761.56" y="1609.82" as="sourcePoint" />
            <mxPoint x="776.0799999999999" y="1596.5" as="targetPoint" />
          </mxGeometry>
        </mxCell>
        <mxCell id="0IGYqATvzg_pEUOGRtzh-128" value="0р." style="text;html=1;align=center;verticalAlign=middle;resizable=0;points=[];autosize=1;strokeColor=none;fillColor=none;fontSize=5;" vertex="1" parent="1">
          <mxGeometry x="757.56" y="1596.5" width="30" height="20" as="geometry" />
        </mxCell>
        <mxCell id="0IGYqATvzg_pEUOGRtzh-129" value="" style="endArrow=none;html=1;rounded=0;exitX=0.002;exitY=0.635;exitDx=0;exitDy=0;exitPerimeter=0;entryX=1.005;entryY=0.786;entryDx=0;entryDy=0;entryPerimeter=0;" edge="1" parent="1">
          <mxGeometry width="50" height="50" relative="1" as="geometry">
            <mxPoint x="761.8" y="1666.6" as="sourcePoint" />
            <mxPoint x="917.335" y="1666.24" as="targetPoint" />
          </mxGeometry>
        </mxCell>
        <mxCell id="0IGYqATvzg_pEUOGRtzh-130" value="2.2.4" style="text;html=1;align=center;verticalAlign=middle;resizable=0;points=[];autosize=1;strokeColor=none;fillColor=none;fontSize=8;" vertex="1" parent="1">
          <mxGeometry x="758.56" y="1667.5" width="40" height="20" as="geometry" />
        </mxCell>
        <mxCell id="0IGYqATvzg_pEUOGRtzh-131" value="&lt;p style=&quot;border-color: var(--border-color); margin: 0cm; text-indent: 35.45pt;&quot; class=&quot;MsoListParagraph&quot;&gt;Тестирование и отладка анимаций&lt;br&gt;&lt;/p&gt;" style="text;html=1;align=center;verticalAlign=middle;resizable=0;points=[];autosize=1;strokeColor=none;fillColor=none;fontSize=9;" vertex="1" parent="1">
          <mxGeometry x="705.56" y="1625.5" width="220" height="20" as="geometry" />
        </mxCell>
        <mxCell id="0IGYqATvzg_pEUOGRtzh-132" value="" style="endArrow=none;html=1;rounded=0;entryX=0.5;entryY=1;entryDx=0;entryDy=0;" edge="1" parent="1">
          <mxGeometry width="50" height="50" relative="1" as="geometry">
            <mxPoint x="839" y="1666.5" as="sourcePoint" />
            <mxPoint x="839" y="1686.5" as="targetPoint" />
          </mxGeometry>
        </mxCell>
        <mxCell id="0IGYqATvzg_pEUOGRtzh-133" value="" style="endArrow=none;html=1;rounded=0;exitX=1;exitY=0.5;exitDx=0;exitDy=0;startArrow=classic;startFill=1;endFill=0;" edge="1" parent="1">
          <mxGeometry width="50" height="50" relative="1" as="geometry">
            <mxPoint x="916.56" y="1640.6399999999999" as="sourcePoint" />
            <mxPoint x="957.56" y="1640.6399999999999" as="targetPoint" />
          </mxGeometry>
        </mxCell>
        <mxCell id="0IGYqATvzg_pEUOGRtzh-134" value="" style="endArrow=none;html=1;rounded=0;entryX=0;entryY=0.5;entryDx=0;entryDy=0;startArrow=classic;startFill=1;endFill=0;exitX=0.988;exitY=0.632;exitDx=0;exitDy=0;exitPerimeter=0;" edge="1" parent="1" source="0IGYqATvzg_pEUOGRtzh-218">
          <mxGeometry width="50" height="50" relative="1" as="geometry">
            <mxPoint x="661.56" y="1645" as="sourcePoint" />
            <mxPoint x="761.56" y="1645" as="targetPoint" />
          </mxGeometry>
        </mxCell>
        <mxCell id="0IGYqATvzg_pEUOGRtzh-135" value="Определенные состояния персонажей,&lt;br&gt;&amp;nbsp;настроенные анимации,&lt;br&gt;&amp;nbsp;установленные переходы." style="text;html=1;align=center;verticalAlign=middle;resizable=0;points=[];autosize=1;strokeColor=none;fillColor=none;fontSize=7;" vertex="1" parent="1">
          <mxGeometry x="617.56" y="1605.5" width="150" height="40" as="geometry" />
        </mxCell>
        <mxCell id="0IGYqATvzg_pEUOGRtzh-136" value="Персонажи, анимации,&lt;br&gt;&amp;nbsp;технические ограничения." style="text;html=1;align=center;verticalAlign=middle;resizable=0;points=[];autosize=1;strokeColor=none;fillColor=none;fontSize=7;" vertex="1" parent="1">
          <mxGeometry x="650.56" y="1478.5" width="110" height="30" as="geometry" />
        </mxCell>
        <mxCell id="0IGYqATvzg_pEUOGRtzh-137" value="Создание анимаций&lt;br&gt;&amp;nbsp;для различных действий" style="text;html=1;align=center;verticalAlign=middle;resizable=0;points=[];autosize=1;strokeColor=none;fillColor=none;fontSize=9;" vertex="1" parent="1">
          <mxGeometry x="969.56" y="1490.5" width="130" height="40" as="geometry" />
        </mxCell>
        <mxCell id="0IGYqATvzg_pEUOGRtzh-138" value="" style="rounded=0;whiteSpace=wrap;html=1;gradientColor=none;glass=0;shadow=0;" vertex="1" parent="1">
          <mxGeometry x="207.33999999999997" y="1760.5" width="155" height="90" as="geometry" />
        </mxCell>
        <mxCell id="0IGYqATvzg_pEUOGRtzh-139" value="" style="endArrow=none;html=1;rounded=0;exitX=0.003;exitY=0.15;exitDx=0;exitDy=0;entryX=0.077;entryY=0;entryDx=0;entryDy=0;entryPerimeter=0;jumpSize=100;endSize=6;jumpStyle=none;exitPerimeter=0;" edge="1" parent="1" source="0IGYqATvzg_pEUOGRtzh-138" target="0IGYqATvzg_pEUOGRtzh-138">
          <mxGeometry width="50" height="50" relative="1" as="geometry">
            <mxPoint x="207.33999999999997" y="1773.82" as="sourcePoint" />
            <mxPoint x="221.85999999999996" y="1760.5" as="targetPoint" />
          </mxGeometry>
        </mxCell>
        <mxCell id="0IGYqATvzg_pEUOGRtzh-140" value="0р." style="text;html=1;align=center;verticalAlign=middle;resizable=0;points=[];autosize=1;strokeColor=none;fillColor=none;fontSize=5;" vertex="1" parent="1">
          <mxGeometry x="203.33999999999997" y="1760.5" width="30" height="20" as="geometry" />
        </mxCell>
        <mxCell id="0IGYqATvzg_pEUOGRtzh-141" value="" style="endArrow=none;html=1;rounded=0;exitX=0.002;exitY=0.635;exitDx=0;exitDy=0;exitPerimeter=0;entryX=1.005;entryY=0.786;entryDx=0;entryDy=0;entryPerimeter=0;" edge="1" parent="1">
          <mxGeometry width="50" height="50" relative="1" as="geometry">
            <mxPoint x="207.57999999999998" y="1830.6" as="sourcePoint" />
            <mxPoint x="363.1150000000001" y="1830.24" as="targetPoint" />
          </mxGeometry>
        </mxCell>
        <mxCell id="0IGYqATvzg_pEUOGRtzh-142" value="3.1.1" style="text;html=1;align=center;verticalAlign=middle;resizable=0;points=[];autosize=1;strokeColor=none;fillColor=none;fontSize=8;" vertex="1" parent="1">
          <mxGeometry x="204.33999999999997" y="1831.5" width="40" height="20" as="geometry" />
        </mxCell>
        <mxCell id="0IGYqATvzg_pEUOGRtzh-143" value="&lt;p style=&quot;margin: 0cm; text-indent: 35.45pt;&quot; class=&quot;MsoListParagraph&quot;&gt;Разработка сценариев и диалогов&lt;br&gt;&lt;/p&gt;" style="text;html=1;align=center;verticalAlign=middle;resizable=0;points=[];autosize=1;strokeColor=none;fillColor=none;fontSize=9;" vertex="1" parent="1">
          <mxGeometry x="156.33999999999997" y="1787.5" width="210" height="20" as="geometry" />
        </mxCell>
        <mxCell id="0IGYqATvzg_pEUOGRtzh-144" value="" style="endArrow=none;html=1;rounded=0;entryX=0.5;entryY=1;entryDx=0;entryDy=0;" edge="1" parent="1">
          <mxGeometry width="50" height="50" relative="1" as="geometry">
            <mxPoint x="284.78000000000003" y="1830.5" as="sourcePoint" />
            <mxPoint x="284.78000000000003" y="1850.5" as="targetPoint" />
          </mxGeometry>
        </mxCell>
        <mxCell id="0IGYqATvzg_pEUOGRtzh-145" value="" style="rounded=0;whiteSpace=wrap;html=1;gradientColor=none;glass=0;shadow=0;" vertex="1" parent="1">
          <mxGeometry x="403.12" y="1759.5" width="155" height="90" as="geometry" />
        </mxCell>
        <mxCell id="0IGYqATvzg_pEUOGRtzh-146" value="" style="endArrow=none;html=1;rounded=0;exitX=0.003;exitY=0.15;exitDx=0;exitDy=0;entryX=0.077;entryY=0;entryDx=0;entryDy=0;entryPerimeter=0;jumpSize=100;endSize=6;jumpStyle=none;exitPerimeter=0;" edge="1" parent="1" source="0IGYqATvzg_pEUOGRtzh-145" target="0IGYqATvzg_pEUOGRtzh-145">
          <mxGeometry width="50" height="50" relative="1" as="geometry">
            <mxPoint x="403.12" y="1772.82" as="sourcePoint" />
            <mxPoint x="417.64" y="1759.5" as="targetPoint" />
          </mxGeometry>
        </mxCell>
        <mxCell id="0IGYqATvzg_pEUOGRtzh-147" value="0р." style="text;html=1;align=center;verticalAlign=middle;resizable=0;points=[];autosize=1;strokeColor=none;fillColor=none;fontSize=5;" vertex="1" parent="1">
          <mxGeometry x="399.12" y="1759.5" width="30" height="20" as="geometry" />
        </mxCell>
        <mxCell id="0IGYqATvzg_pEUOGRtzh-148" value="" style="endArrow=none;html=1;rounded=0;exitX=0.002;exitY=0.635;exitDx=0;exitDy=0;exitPerimeter=0;entryX=1.005;entryY=0.786;entryDx=0;entryDy=0;entryPerimeter=0;" edge="1" parent="1">
          <mxGeometry width="50" height="50" relative="1" as="geometry">
            <mxPoint x="403.36" y="1829.6" as="sourcePoint" />
            <mxPoint x="558.895" y="1829.24" as="targetPoint" />
          </mxGeometry>
        </mxCell>
        <mxCell id="0IGYqATvzg_pEUOGRtzh-149" value="3.1.2" style="text;html=1;align=center;verticalAlign=middle;resizable=0;points=[];autosize=1;strokeColor=none;fillColor=none;fontSize=8;" vertex="1" parent="1">
          <mxGeometry x="400.12" y="1830.5" width="40" height="20" as="geometry" />
        </mxCell>
        <mxCell id="0IGYqATvzg_pEUOGRtzh-150" value="" style="endArrow=none;html=1;rounded=0;entryX=0.5;entryY=1;entryDx=0;entryDy=0;" edge="1" parent="1">
          <mxGeometry width="50" height="50" relative="1" as="geometry">
            <mxPoint x="480.56" y="1829.5" as="sourcePoint" />
            <mxPoint x="480.56" y="1849.5" as="targetPoint" />
          </mxGeometry>
        </mxCell>
        <mxCell id="0IGYqATvzg_pEUOGRtzh-151" value="" style="endArrow=classic;html=1;rounded=0;exitX=1;exitY=0.5;exitDx=0;exitDy=0;" edge="1" parent="1" source="0IGYqATvzg_pEUOGRtzh-138" target="0IGYqATvzg_pEUOGRtzh-145">
          <mxGeometry width="50" height="50" relative="1" as="geometry">
            <mxPoint x="367.12" y="1853.5" as="sourcePoint" />
            <mxPoint x="407.12" y="1803.5" as="targetPoint" />
          </mxGeometry>
        </mxCell>
        <mxCell id="0IGYqATvzg_pEUOGRtzh-152" value="" style="rounded=0;whiteSpace=wrap;html=1;gradientColor=none;glass=0;shadow=0;" vertex="1" parent="1">
          <mxGeometry x="403.12" y="1883" width="155" height="90" as="geometry" />
        </mxCell>
        <mxCell id="0IGYqATvzg_pEUOGRtzh-153" value="" style="endArrow=none;html=1;rounded=0;exitX=0.003;exitY=0.15;exitDx=0;exitDy=0;entryX=0.077;entryY=0;entryDx=0;entryDy=0;entryPerimeter=0;jumpSize=100;endSize=6;jumpStyle=none;exitPerimeter=0;" edge="1" parent="1" source="0IGYqATvzg_pEUOGRtzh-152" target="0IGYqATvzg_pEUOGRtzh-152">
          <mxGeometry width="50" height="50" relative="1" as="geometry">
            <mxPoint x="403.12" y="1896.32" as="sourcePoint" />
            <mxPoint x="417.64" y="1883" as="targetPoint" />
          </mxGeometry>
        </mxCell>
        <mxCell id="0IGYqATvzg_pEUOGRtzh-154" value="0р." style="text;html=1;align=center;verticalAlign=middle;resizable=0;points=[];autosize=1;strokeColor=none;fillColor=none;fontSize=5;" vertex="1" parent="1">
          <mxGeometry x="399.12" y="1883" width="30" height="20" as="geometry" />
        </mxCell>
        <mxCell id="0IGYqATvzg_pEUOGRtzh-155" value="" style="endArrow=none;html=1;rounded=0;exitX=0.002;exitY=0.635;exitDx=0;exitDy=0;exitPerimeter=0;entryX=1.005;entryY=0.786;entryDx=0;entryDy=0;entryPerimeter=0;" edge="1" parent="1">
          <mxGeometry width="50" height="50" relative="1" as="geometry">
            <mxPoint x="403.36" y="1953.1" as="sourcePoint" />
            <mxPoint x="558.895" y="1952.74" as="targetPoint" />
          </mxGeometry>
        </mxCell>
        <mxCell id="0IGYqATvzg_pEUOGRtzh-156" value="3.1.3" style="text;html=1;align=center;verticalAlign=middle;resizable=0;points=[];autosize=1;strokeColor=none;fillColor=none;fontSize=8;" vertex="1" parent="1">
          <mxGeometry x="400.12" y="1954" width="40" height="20" as="geometry" />
        </mxCell>
        <mxCell id="0IGYqATvzg_pEUOGRtzh-157" value="&lt;p style=&quot;border-color: var(--border-color); margin: 0cm; text-indent: 35.45pt;&quot; class=&quot;MsoListParagraph&quot;&gt;Создание кинематографических&lt;/p&gt;&lt;p style=&quot;border-color: var(--border-color); margin: 0cm; text-indent: 35.45pt;&quot; class=&quot;MsoListParagraph&quot;&gt;&amp;nbsp;эффектов&lt;br&gt;&lt;/p&gt;" style="text;html=1;align=center;verticalAlign=middle;resizable=0;points=[];autosize=1;strokeColor=none;fillColor=none;fontSize=9;" vertex="1" parent="1">
          <mxGeometry x="352.12" y="1900" width="210" height="40" as="geometry" />
        </mxCell>
        <mxCell id="0IGYqATvzg_pEUOGRtzh-158" value="" style="endArrow=none;html=1;rounded=0;entryX=0.5;entryY=1;entryDx=0;entryDy=0;" edge="1" parent="1">
          <mxGeometry width="50" height="50" relative="1" as="geometry">
            <mxPoint x="480.56" y="1953" as="sourcePoint" />
            <mxPoint x="480.56" y="1973" as="targetPoint" />
          </mxGeometry>
        </mxCell>
        <mxCell id="0IGYqATvzg_pEUOGRtzh-159" value="" style="endArrow=classic;html=1;rounded=0;exitX=0.5;exitY=1;exitDx=0;exitDy=0;entryX=0.5;entryY=0;entryDx=0;entryDy=0;" edge="1" parent="1">
          <mxGeometry width="50" height="50" relative="1" as="geometry">
            <mxPoint x="494.61999999999995" y="1848.5" as="sourcePoint" />
            <mxPoint x="494.61999999999995" y="1882" as="targetPoint" />
          </mxGeometry>
        </mxCell>
        <mxCell id="0IGYqATvzg_pEUOGRtzh-160" value="" style="rounded=0;whiteSpace=wrap;html=1;gradientColor=none;glass=0;shadow=0;" vertex="1" parent="1">
          <mxGeometry x="206.56" y="1883.5" width="155" height="90" as="geometry" />
        </mxCell>
        <mxCell id="0IGYqATvzg_pEUOGRtzh-161" value="" style="endArrow=none;html=1;rounded=0;exitX=0.003;exitY=0.15;exitDx=0;exitDy=0;entryX=0.077;entryY=0;entryDx=0;entryDy=0;entryPerimeter=0;jumpSize=100;endSize=6;jumpStyle=none;exitPerimeter=0;" edge="1" parent="1" source="0IGYqATvzg_pEUOGRtzh-160" target="0IGYqATvzg_pEUOGRtzh-160">
          <mxGeometry width="50" height="50" relative="1" as="geometry">
            <mxPoint x="206.56" y="1896.82" as="sourcePoint" />
            <mxPoint x="221.07999999999998" y="1883.5" as="targetPoint" />
          </mxGeometry>
        </mxCell>
        <mxCell id="0IGYqATvzg_pEUOGRtzh-162" value="0р." style="text;html=1;align=center;verticalAlign=middle;resizable=0;points=[];autosize=1;strokeColor=none;fillColor=none;fontSize=5;" vertex="1" parent="1">
          <mxGeometry x="202.56" y="1883.5" width="30" height="20" as="geometry" />
        </mxCell>
        <mxCell id="0IGYqATvzg_pEUOGRtzh-163" value="" style="endArrow=none;html=1;rounded=0;exitX=0.002;exitY=0.635;exitDx=0;exitDy=0;exitPerimeter=0;entryX=1.005;entryY=0.786;entryDx=0;entryDy=0;entryPerimeter=0;" edge="1" parent="1">
          <mxGeometry width="50" height="50" relative="1" as="geometry">
            <mxPoint x="206.8" y="1953.6" as="sourcePoint" />
            <mxPoint x="362.3350000000001" y="1953.24" as="targetPoint" />
          </mxGeometry>
        </mxCell>
        <mxCell id="0IGYqATvzg_pEUOGRtzh-164" value="3.1.4" style="text;html=1;align=center;verticalAlign=middle;resizable=0;points=[];autosize=1;strokeColor=none;fillColor=none;fontSize=8;" vertex="1" parent="1">
          <mxGeometry x="203.56" y="1954.5" width="40" height="20" as="geometry" />
        </mxCell>
        <mxCell id="0IGYqATvzg_pEUOGRtzh-165" value="&lt;p style=&quot;border-color: var(--border-color); margin: 0cm; text-indent: 35.45pt;&quot; class=&quot;MsoListParagraph&quot;&gt;Связывание событий&lt;/p&gt;&lt;p style=&quot;border-color: var(--border-color); margin: 0cm; text-indent: 35.45pt;&quot; class=&quot;MsoListParagraph&quot;&gt;&amp;nbsp;с игровой логикой&lt;br&gt;&lt;/p&gt;" style="text;html=1;align=center;verticalAlign=middle;resizable=0;points=[];autosize=1;strokeColor=none;fillColor=none;fontSize=9;" vertex="1" parent="1">
          <mxGeometry x="180.56" y="1902.5" width="160" height="40" as="geometry" />
        </mxCell>
        <mxCell id="0IGYqATvzg_pEUOGRtzh-166" value="" style="endArrow=none;html=1;rounded=0;entryX=0.5;entryY=1;entryDx=0;entryDy=0;" edge="1" parent="1">
          <mxGeometry width="50" height="50" relative="1" as="geometry">
            <mxPoint x="284" y="1953.5" as="sourcePoint" />
            <mxPoint x="284" y="1973.5" as="targetPoint" />
          </mxGeometry>
        </mxCell>
        <mxCell id="0IGYqATvzg_pEUOGRtzh-167" value="" style="endArrow=none;html=1;rounded=0;exitX=1;exitY=0.5;exitDx=0;exitDy=0;startArrow=classic;startFill=1;endFill=0;" edge="1" parent="1">
          <mxGeometry width="50" height="50" relative="1" as="geometry">
            <mxPoint x="361.56" y="1927.6399999999999" as="sourcePoint" />
            <mxPoint x="402.56" y="1927.6399999999999" as="targetPoint" />
          </mxGeometry>
        </mxCell>
        <mxCell id="0IGYqATvzg_pEUOGRtzh-168" value=" Готовые сценарии, &lt;br&gt;установленные камеры,&lt;br&gt;&amp;nbsp;созданные эффекты." style="text;html=1;align=center;verticalAlign=middle;resizable=0;points=[];autosize=1;strokeColor=none;fillColor=none;fontSize=7;" vertex="1" parent="1">
          <mxGeometry x="100.56" y="1889" width="100" height="40" as="geometry" />
        </mxCell>
        <mxCell id="0IGYqATvzg_pEUOGRtzh-169" value="Концепция сценариев, &lt;br&gt;камеры,&lt;br&gt;&amp;nbsp;игровой жанр и стиль." style="text;html=1;align=center;verticalAlign=middle;resizable=0;points=[];autosize=1;strokeColor=none;fillColor=none;fontSize=7;" vertex="1" parent="1">
          <mxGeometry x="106.56" y="1760.5" width="100" height="40" as="geometry" />
        </mxCell>
        <mxCell id="0IGYqATvzg_pEUOGRtzh-170" value="Установка камер и ракурсов" style="text;html=1;align=center;verticalAlign=middle;resizable=0;points=[];autosize=1;strokeColor=none;fillColor=none;fontSize=9;" vertex="1" parent="1">
          <mxGeometry x="409.56" y="1787.5" width="140" height="20" as="geometry" />
        </mxCell>
        <mxCell id="0IGYqATvzg_pEUOGRtzh-171" value="" style="rounded=0;whiteSpace=wrap;html=1;gradientColor=none;glass=0;shadow=0;" vertex="1" parent="1">
          <mxGeometry x="762.3399999999999" y="1759" width="155" height="90" as="geometry" />
        </mxCell>
        <mxCell id="0IGYqATvzg_pEUOGRtzh-172" value="" style="endArrow=none;html=1;rounded=0;exitX=0.003;exitY=0.15;exitDx=0;exitDy=0;entryX=0.077;entryY=0;entryDx=0;entryDy=0;entryPerimeter=0;jumpSize=100;endSize=6;jumpStyle=none;exitPerimeter=0;" edge="1" parent="1" source="0IGYqATvzg_pEUOGRtzh-171" target="0IGYqATvzg_pEUOGRtzh-171">
          <mxGeometry width="50" height="50" relative="1" as="geometry">
            <mxPoint x="762.3399999999999" y="1772.32" as="sourcePoint" />
            <mxPoint x="776.8599999999999" y="1759" as="targetPoint" />
          </mxGeometry>
        </mxCell>
        <mxCell id="0IGYqATvzg_pEUOGRtzh-173" value="0р." style="text;html=1;align=center;verticalAlign=middle;resizable=0;points=[];autosize=1;strokeColor=none;fillColor=none;fontSize=5;" vertex="1" parent="1">
          <mxGeometry x="758.3399999999999" y="1759" width="30" height="20" as="geometry" />
        </mxCell>
        <mxCell id="0IGYqATvzg_pEUOGRtzh-174" value="" style="endArrow=none;html=1;rounded=0;exitX=0.002;exitY=0.635;exitDx=0;exitDy=0;exitPerimeter=0;entryX=1.005;entryY=0.786;entryDx=0;entryDy=0;entryPerimeter=0;" edge="1" parent="1">
          <mxGeometry width="50" height="50" relative="1" as="geometry">
            <mxPoint x="762.5799999999999" y="1829.1" as="sourcePoint" />
            <mxPoint x="918.115" y="1828.74" as="targetPoint" />
          </mxGeometry>
        </mxCell>
        <mxCell id="0IGYqATvzg_pEUOGRtzh-175" value="3.2.1" style="text;html=1;align=center;verticalAlign=middle;resizable=0;points=[];autosize=1;strokeColor=none;fillColor=none;fontSize=8;" vertex="1" parent="1">
          <mxGeometry x="759.3399999999999" y="1830" width="40" height="20" as="geometry" />
        </mxCell>
        <mxCell id="0IGYqATvzg_pEUOGRtzh-176" value="&lt;p style=&quot;margin: 0cm; text-indent: 35.45pt;&quot; class=&quot;MsoListParagraph&quot;&gt;Вставка кинематографических&lt;/p&gt;&lt;p style=&quot;margin: 0cm; text-indent: 35.45pt;&quot; class=&quot;MsoListParagraph&quot;&gt;&amp;nbsp;сцен в игровой процесс&lt;br&gt;&lt;/p&gt;" style="text;html=1;align=center;verticalAlign=middle;resizable=0;points=[];autosize=1;strokeColor=none;fillColor=none;fontSize=9;" vertex="1" parent="1">
          <mxGeometry x="716.3399999999999" y="1776" width="200" height="40" as="geometry" />
        </mxCell>
        <mxCell id="0IGYqATvzg_pEUOGRtzh-177" value="" style="endArrow=none;html=1;rounded=0;entryX=0.5;entryY=1;entryDx=0;entryDy=0;" edge="1" parent="1">
          <mxGeometry width="50" height="50" relative="1" as="geometry">
            <mxPoint x="839.78" y="1829" as="sourcePoint" />
            <mxPoint x="839.78" y="1849" as="targetPoint" />
          </mxGeometry>
        </mxCell>
        <mxCell id="0IGYqATvzg_pEUOGRtzh-178" value="" style="rounded=0;whiteSpace=wrap;html=1;gradientColor=none;glass=0;shadow=0;" vertex="1" parent="1">
          <mxGeometry x="958.1199999999999" y="1758" width="155" height="90" as="geometry" />
        </mxCell>
        <mxCell id="0IGYqATvzg_pEUOGRtzh-179" value="" style="endArrow=none;html=1;rounded=0;exitX=0.003;exitY=0.15;exitDx=0;exitDy=0;entryX=0.077;entryY=0;entryDx=0;entryDy=0;entryPerimeter=0;jumpSize=100;endSize=6;jumpStyle=none;exitPerimeter=0;" edge="1" parent="1" source="0IGYqATvzg_pEUOGRtzh-178" target="0IGYqATvzg_pEUOGRtzh-178">
          <mxGeometry width="50" height="50" relative="1" as="geometry">
            <mxPoint x="958.1199999999999" y="1771.32" as="sourcePoint" />
            <mxPoint x="972.6399999999999" y="1758" as="targetPoint" />
          </mxGeometry>
        </mxCell>
        <mxCell id="0IGYqATvzg_pEUOGRtzh-180" value="0р." style="text;html=1;align=center;verticalAlign=middle;resizable=0;points=[];autosize=1;strokeColor=none;fillColor=none;fontSize=5;" vertex="1" parent="1">
          <mxGeometry x="954.1199999999999" y="1758" width="30" height="20" as="geometry" />
        </mxCell>
        <mxCell id="0IGYqATvzg_pEUOGRtzh-181" value="" style="endArrow=none;html=1;rounded=0;exitX=0.002;exitY=0.635;exitDx=0;exitDy=0;exitPerimeter=0;entryX=1.005;entryY=0.786;entryDx=0;entryDy=0;entryPerimeter=0;" edge="1" parent="1">
          <mxGeometry width="50" height="50" relative="1" as="geometry">
            <mxPoint x="958.3599999999999" y="1828.1" as="sourcePoint" />
            <mxPoint x="1113.895" y="1827.74" as="targetPoint" />
          </mxGeometry>
        </mxCell>
        <mxCell id="0IGYqATvzg_pEUOGRtzh-182" value="3.2.2" style="text;html=1;align=center;verticalAlign=middle;resizable=0;points=[];autosize=1;strokeColor=none;fillColor=none;fontSize=8;" vertex="1" parent="1">
          <mxGeometry x="955.1199999999999" y="1829" width="40" height="20" as="geometry" />
        </mxCell>
        <mxCell id="0IGYqATvzg_pEUOGRtzh-183" value="" style="endArrow=none;html=1;rounded=0;entryX=0.5;entryY=1;entryDx=0;entryDy=0;" edge="1" parent="1">
          <mxGeometry width="50" height="50" relative="1" as="geometry">
            <mxPoint x="1035.56" y="1828" as="sourcePoint" />
            <mxPoint x="1035.56" y="1848" as="targetPoint" />
          </mxGeometry>
        </mxCell>
        <mxCell id="0IGYqATvzg_pEUOGRtzh-184" value="" style="endArrow=classic;html=1;rounded=0;exitX=1;exitY=0.5;exitDx=0;exitDy=0;" edge="1" parent="1" source="0IGYqATvzg_pEUOGRtzh-171" target="0IGYqATvzg_pEUOGRtzh-178">
          <mxGeometry width="50" height="50" relative="1" as="geometry">
            <mxPoint x="922.1199999999999" y="1852" as="sourcePoint" />
            <mxPoint x="962.1199999999999" y="1802" as="targetPoint" />
          </mxGeometry>
        </mxCell>
        <mxCell id="0IGYqATvzg_pEUOGRtzh-185" value="" style="rounded=0;whiteSpace=wrap;html=1;gradientColor=none;glass=0;shadow=0;" vertex="1" parent="1">
          <mxGeometry x="958.1199999999999" y="1881.5" width="155" height="90" as="geometry" />
        </mxCell>
        <mxCell id="0IGYqATvzg_pEUOGRtzh-186" value="" style="endArrow=none;html=1;rounded=0;exitX=0.003;exitY=0.15;exitDx=0;exitDy=0;entryX=0.077;entryY=0;entryDx=0;entryDy=0;entryPerimeter=0;jumpSize=100;endSize=6;jumpStyle=none;exitPerimeter=0;" edge="1" parent="1" source="0IGYqATvzg_pEUOGRtzh-185" target="0IGYqATvzg_pEUOGRtzh-185">
          <mxGeometry width="50" height="50" relative="1" as="geometry">
            <mxPoint x="958.1199999999999" y="1894.82" as="sourcePoint" />
            <mxPoint x="972.6399999999999" y="1881.5" as="targetPoint" />
          </mxGeometry>
        </mxCell>
        <mxCell id="0IGYqATvzg_pEUOGRtzh-187" value="0р." style="text;html=1;align=center;verticalAlign=middle;resizable=0;points=[];autosize=1;strokeColor=none;fillColor=none;fontSize=5;" vertex="1" parent="1">
          <mxGeometry x="954.1199999999999" y="1881.5" width="30" height="20" as="geometry" />
        </mxCell>
        <mxCell id="0IGYqATvzg_pEUOGRtzh-188" value="" style="endArrow=none;html=1;rounded=0;exitX=0.002;exitY=0.635;exitDx=0;exitDy=0;exitPerimeter=0;entryX=1.005;entryY=0.786;entryDx=0;entryDy=0;entryPerimeter=0;" edge="1" parent="1">
          <mxGeometry width="50" height="50" relative="1" as="geometry">
            <mxPoint x="958.3599999999999" y="1951.6" as="sourcePoint" />
            <mxPoint x="1113.895" y="1951.24" as="targetPoint" />
          </mxGeometry>
        </mxCell>
        <mxCell id="0IGYqATvzg_pEUOGRtzh-189" value="3.2.3" style="text;html=1;align=center;verticalAlign=middle;resizable=0;points=[];autosize=1;strokeColor=none;fillColor=none;fontSize=8;" vertex="1" parent="1">
          <mxGeometry x="955.1199999999999" y="1952.5" width="40" height="20" as="geometry" />
        </mxCell>
        <mxCell id="0IGYqATvzg_pEUOGRtzh-190" value="&lt;p style=&quot;border-color: var(--border-color); margin: 0cm; text-indent: 35.45pt;&quot; class=&quot;MsoListParagraph&quot;&gt;Сценарии кинематографических&lt;/p&gt;&lt;p style=&quot;border-color: var(--border-color); margin: 0cm; text-indent: 35.45pt;&quot; class=&quot;MsoListParagraph&quot;&gt;&amp;nbsp;моментов&lt;br&gt;&lt;/p&gt;" style="text;html=1;align=center;verticalAlign=middle;resizable=0;points=[];autosize=1;strokeColor=none;fillColor=none;fontSize=9;" vertex="1" parent="1">
          <mxGeometry x="907.1199999999999" y="1898.5" width="210" height="40" as="geometry" />
        </mxCell>
        <mxCell id="0IGYqATvzg_pEUOGRtzh-191" value="" style="endArrow=none;html=1;rounded=0;entryX=0.5;entryY=1;entryDx=0;entryDy=0;" edge="1" parent="1">
          <mxGeometry width="50" height="50" relative="1" as="geometry">
            <mxPoint x="1035.56" y="1951.5" as="sourcePoint" />
            <mxPoint x="1035.56" y="1971.5" as="targetPoint" />
          </mxGeometry>
        </mxCell>
        <mxCell id="0IGYqATvzg_pEUOGRtzh-192" value="" style="endArrow=classic;html=1;rounded=0;exitX=0.5;exitY=1;exitDx=0;exitDy=0;entryX=0.5;entryY=0;entryDx=0;entryDy=0;" edge="1" parent="1">
          <mxGeometry width="50" height="50" relative="1" as="geometry">
            <mxPoint x="1049.62" y="1847" as="sourcePoint" />
            <mxPoint x="1049.62" y="1880.5" as="targetPoint" />
          </mxGeometry>
        </mxCell>
        <mxCell id="0IGYqATvzg_pEUOGRtzh-193" value="" style="rounded=0;whiteSpace=wrap;html=1;gradientColor=none;glass=0;shadow=0;" vertex="1" parent="1">
          <mxGeometry x="761.56" y="1882" width="155" height="90" as="geometry" />
        </mxCell>
        <mxCell id="0IGYqATvzg_pEUOGRtzh-194" value="" style="endArrow=none;html=1;rounded=0;exitX=0.003;exitY=0.15;exitDx=0;exitDy=0;entryX=0.077;entryY=0;entryDx=0;entryDy=0;entryPerimeter=0;jumpSize=100;endSize=6;jumpStyle=none;exitPerimeter=0;" edge="1" parent="1" source="0IGYqATvzg_pEUOGRtzh-193" target="0IGYqATvzg_pEUOGRtzh-193">
          <mxGeometry width="50" height="50" relative="1" as="geometry">
            <mxPoint x="761.56" y="1895.32" as="sourcePoint" />
            <mxPoint x="776.0799999999999" y="1882" as="targetPoint" />
          </mxGeometry>
        </mxCell>
        <mxCell id="0IGYqATvzg_pEUOGRtzh-195" value="0р." style="text;html=1;align=center;verticalAlign=middle;resizable=0;points=[];autosize=1;strokeColor=none;fillColor=none;fontSize=5;" vertex="1" parent="1">
          <mxGeometry x="757.56" y="1882" width="30" height="20" as="geometry" />
        </mxCell>
        <mxCell id="0IGYqATvzg_pEUOGRtzh-196" value="" style="endArrow=none;html=1;rounded=0;exitX=0.002;exitY=0.635;exitDx=0;exitDy=0;exitPerimeter=0;entryX=1.005;entryY=0.786;entryDx=0;entryDy=0;entryPerimeter=0;" edge="1" parent="1">
          <mxGeometry width="50" height="50" relative="1" as="geometry">
            <mxPoint x="761.8" y="1952.1" as="sourcePoint" />
            <mxPoint x="917.335" y="1951.74" as="targetPoint" />
          </mxGeometry>
        </mxCell>
        <mxCell id="0IGYqATvzg_pEUOGRtzh-197" value="3.2.4" style="text;html=1;align=center;verticalAlign=middle;resizable=0;points=[];autosize=1;strokeColor=none;fillColor=none;fontSize=8;" vertex="1" parent="1">
          <mxGeometry x="758.56" y="1953" width="40" height="20" as="geometry" />
        </mxCell>
        <mxCell id="0IGYqATvzg_pEUOGRtzh-198" value="&lt;p style=&quot;border-color: var(--border-color); margin: 0cm; text-indent: 35.45pt;&quot; class=&quot;MsoListParagraph&quot;&gt;Отладка и синхронизация&lt;/p&gt;&lt;p style=&quot;border-color: var(--border-color); margin: 0cm; text-indent: 35.45pt;&quot; class=&quot;MsoListParagraph&quot;&gt;&amp;nbsp;с игровой логикой&lt;br&gt;&lt;/p&gt;" style="text;html=1;align=center;verticalAlign=middle;resizable=0;points=[];autosize=1;strokeColor=none;fillColor=none;fontSize=9;" vertex="1" parent="1">
          <mxGeometry x="725.56" y="1901" width="180" height="40" as="geometry" />
        </mxCell>
        <mxCell id="0IGYqATvzg_pEUOGRtzh-199" value="" style="endArrow=none;html=1;rounded=0;entryX=0.5;entryY=1;entryDx=0;entryDy=0;" edge="1" parent="1">
          <mxGeometry width="50" height="50" relative="1" as="geometry">
            <mxPoint x="839" y="1952" as="sourcePoint" />
            <mxPoint x="839" y="1972" as="targetPoint" />
          </mxGeometry>
        </mxCell>
        <mxCell id="0IGYqATvzg_pEUOGRtzh-200" value="" style="endArrow=none;html=1;rounded=0;exitX=1;exitY=0.5;exitDx=0;exitDy=0;startArrow=classic;startFill=1;endFill=0;" edge="1" parent="1">
          <mxGeometry width="50" height="50" relative="1" as="geometry">
            <mxPoint x="916.56" y="1926.1399999999999" as="sourcePoint" />
            <mxPoint x="957.56" y="1926.1399999999999" as="targetPoint" />
          </mxGeometry>
        </mxCell>
        <mxCell id="0IGYqATvzg_pEUOGRtzh-201" value="" style="endArrow=none;html=1;rounded=0;entryX=0;entryY=0.5;entryDx=0;entryDy=0;startArrow=classic;startFill=1;endFill=0;exitX=1;exitY=0.5;exitDx=0;exitDy=0;" edge="1" parent="1" source="0IGYqATvzg_pEUOGRtzh-220">
          <mxGeometry width="50" height="50" relative="1" as="geometry">
            <mxPoint x="640" y="1930" as="sourcePoint" />
            <mxPoint x="761.56" y="1930.5" as="targetPoint" />
          </mxGeometry>
        </mxCell>
        <mxCell id="0IGYqATvzg_pEUOGRtzh-202" value="Готовые сценарии,&lt;br&gt;&amp;nbsp;события,&lt;br&gt;&amp;nbsp;игровой жанр и стиль." style="text;html=1;align=center;verticalAlign=middle;resizable=0;points=[];autosize=1;strokeColor=none;fillColor=none;fontSize=7;" vertex="1" parent="1">
          <mxGeometry x="655.56" y="1759" width="100" height="40" as="geometry" />
        </mxCell>
        <mxCell id="0IGYqATvzg_pEUOGRtzh-203" value="Управление событиями&lt;br&gt;&amp;nbsp;и переходами между сценами" style="text;html=1;align=center;verticalAlign=middle;resizable=0;points=[];autosize=1;strokeColor=none;fillColor=none;fontSize=9;" vertex="1" parent="1">
          <mxGeometry x="959.56" y="1776" width="150" height="40" as="geometry" />
        </mxCell>
        <mxCell id="0IGYqATvzg_pEUOGRtzh-204" value="Вставленные кинематографические&lt;br&gt;&amp;nbsp;моменты,&lt;br&gt;&amp;nbsp;управляемые событиями,&lt;br&gt;&amp;nbsp;сценарии кинематографических&lt;br&gt;&amp;nbsp;моментов." style="text;html=1;align=center;verticalAlign=middle;resizable=0;points=[];autosize=1;strokeColor=none;fillColor=none;fontSize=7;" vertex="1" parent="1">
          <mxGeometry x="628.56" y="1880" width="140" height="60" as="geometry" />
        </mxCell>
        <mxCell id="0IGYqATvzg_pEUOGRtzh-205" value="&lt;font style=&quot;font-size: 15px;&quot;&gt;&amp;amp;&lt;/font&gt;" style="rounded=0;whiteSpace=wrap;html=1;" vertex="1" parent="1">
          <mxGeometry x="583.56" y="1284.5" width="34" height="34" as="geometry" />
        </mxCell>
        <mxCell id="0IGYqATvzg_pEUOGRtzh-206" value="" style="endArrow=none;html=1;rounded=0;entryX=0.25;entryY=0;entryDx=0;entryDy=0;exitX=0.25;exitY=1;exitDx=0;exitDy=0;" edge="1" parent="1" source="0IGYqATvzg_pEUOGRtzh-205" target="0IGYqATvzg_pEUOGRtzh-205">
          <mxGeometry width="50" height="50" relative="1" as="geometry">
            <mxPoint x="512.56" y="1326.5" as="sourcePoint" />
            <mxPoint x="562.56" y="1276.5" as="targetPoint" />
          </mxGeometry>
        </mxCell>
        <mxCell id="0IGYqATvzg_pEUOGRtzh-207" value="&lt;font style=&quot;font-size: 15px;&quot;&gt;&amp;amp;&lt;/font&gt;" style="rounded=0;whiteSpace=wrap;html=1;" vertex="1" parent="1">
          <mxGeometry x="591.56" y="1557.5" width="34" height="34" as="geometry" />
        </mxCell>
        <mxCell id="0IGYqATvzg_pEUOGRtzh-208" value="" style="endArrow=none;html=1;rounded=0;entryX=0.25;entryY=0;entryDx=0;entryDy=0;exitX=0.25;exitY=1;exitDx=0;exitDy=0;" edge="1" parent="1" source="0IGYqATvzg_pEUOGRtzh-207" target="0IGYqATvzg_pEUOGRtzh-207">
          <mxGeometry width="50" height="50" relative="1" as="geometry">
            <mxPoint x="520.56" y="1599.5" as="sourcePoint" />
            <mxPoint x="570.56" y="1549.5" as="targetPoint" />
          </mxGeometry>
        </mxCell>
        <mxCell id="0IGYqATvzg_pEUOGRtzh-209" value="" style="endArrow=none;html=1;rounded=0;entryX=0;entryY=0.5;entryDx=0;entryDy=0;startArrow=classic;startFill=1;endFill=0;exitX=0;exitY=0.5;exitDx=0;exitDy=0;" edge="1" parent="1" source="0IGYqATvzg_pEUOGRtzh-207">
          <mxGeometry width="50" height="50" relative="1" as="geometry">
            <mxPoint x="101.00000000000006" y="1635.5" as="sourcePoint" />
            <mxPoint x="201.00000000000006" y="1635.5" as="targetPoint" />
            <Array as="points">
              <mxPoint x="571.56" y="1575" />
              <mxPoint x="571.56" y="1707" />
              <mxPoint x="101.56" y="1707" />
              <mxPoint x="101.56" y="1636" />
            </Array>
          </mxGeometry>
        </mxCell>
        <mxCell id="0IGYqATvzg_pEUOGRtzh-210" value="" style="endArrow=classic;html=1;rounded=0;entryX=0;entryY=0.5;entryDx=0;entryDy=0;exitX=1;exitY=0.5;exitDx=0;exitDy=0;" edge="1" parent="1">
          <mxGeometry width="50" height="50" relative="1" as="geometry">
            <mxPoint x="625.56" y="1574.5" as="sourcePoint" />
            <mxPoint x="765.1199999999999" y="1517" as="targetPoint" />
            <Array as="points">
              <mxPoint x="651.56" y="1575" />
              <mxPoint x="651.56" y="1517" />
            </Array>
          </mxGeometry>
        </mxCell>
        <mxCell id="0IGYqATvzg_pEUOGRtzh-211" value="&lt;font style=&quot;font-size: 15px;&quot;&gt;&amp;amp;&lt;/font&gt;" style="rounded=0;whiteSpace=wrap;html=1;" vertex="1" parent="1">
          <mxGeometry x="601.56" y="1846.5" width="34" height="34" as="geometry" />
        </mxCell>
        <mxCell id="0IGYqATvzg_pEUOGRtzh-212" value="" style="endArrow=none;html=1;rounded=0;entryX=0.25;entryY=0;entryDx=0;entryDy=0;exitX=0.25;exitY=1;exitDx=0;exitDy=0;" edge="1" parent="1" source="0IGYqATvzg_pEUOGRtzh-211" target="0IGYqATvzg_pEUOGRtzh-211">
          <mxGeometry width="50" height="50" relative="1" as="geometry">
            <mxPoint x="530.56" y="1888.5" as="sourcePoint" />
            <mxPoint x="580.56" y="1838.5" as="targetPoint" />
          </mxGeometry>
        </mxCell>
        <mxCell id="0IGYqATvzg_pEUOGRtzh-213" value="" style="endArrow=none;html=1;rounded=0;startArrow=classic;startFill=1;endFill=0;exitX=0;exitY=0.5;exitDx=0;exitDy=0;" edge="1" parent="1" source="0IGYqATvzg_pEUOGRtzh-211">
          <mxGeometry width="50" height="50" relative="1" as="geometry">
            <mxPoint x="111.00000000000006" y="1924.5" as="sourcePoint" />
            <mxPoint x="203.56" y="1924" as="targetPoint" />
            <Array as="points">
              <mxPoint x="581.56" y="1864" />
              <mxPoint x="581.56" y="1996" />
              <mxPoint x="111.56" y="1996" />
              <mxPoint x="111.56" y="1925" />
            </Array>
          </mxGeometry>
        </mxCell>
        <mxCell id="0IGYqATvzg_pEUOGRtzh-214" value="" style="endArrow=classic;html=1;rounded=0;exitX=1;exitY=0.5;exitDx=0;exitDy=0;" edge="1" parent="1">
          <mxGeometry width="50" height="50" relative="1" as="geometry">
            <mxPoint x="635.56" y="1863.5" as="sourcePoint" />
            <mxPoint x="763.56" y="1806" as="targetPoint" />
            <Array as="points">
              <mxPoint x="661.56" y="1864" />
              <mxPoint x="661.56" y="1806" />
            </Array>
          </mxGeometry>
        </mxCell>
        <mxCell id="0IGYqATvzg_pEUOGRtzh-215" style="edgeStyle=orthogonalEdgeStyle;rounded=0;orthogonalLoop=1;jettySize=auto;html=1;" edge="1" parent="1" source="0IGYqATvzg_pEUOGRtzh-216" target="0IGYqATvzg_pEUOGRtzh-71">
          <mxGeometry relative="1" as="geometry">
            <Array as="points">
              <mxPoint x="573.56" y="1372" />
              <mxPoint x="573.56" y="1454" />
              <mxPoint x="103.56" y="1454" />
              <mxPoint x="103.56" y="1520" />
            </Array>
          </mxGeometry>
        </mxCell>
        <mxCell id="0IGYqATvzg_pEUOGRtzh-216" value="&lt;font style=&quot;font-size: 15px;&quot;&gt;&amp;amp;&lt;/font&gt;" style="rounded=0;whiteSpace=wrap;html=1;" vertex="1" parent="1">
          <mxGeometry x="583.56" y="1355.5" width="34" height="34" as="geometry" />
        </mxCell>
        <mxCell id="0IGYqATvzg_pEUOGRtzh-217" value="" style="endArrow=none;html=1;rounded=0;entryX=0.25;entryY=0;entryDx=0;entryDy=0;exitX=0.25;exitY=1;exitDx=0;exitDy=0;" edge="1" parent="1" source="0IGYqATvzg_pEUOGRtzh-216" target="0IGYqATvzg_pEUOGRtzh-216">
          <mxGeometry width="50" height="50" relative="1" as="geometry">
            <mxPoint x="512.56" y="1397.5" as="sourcePoint" />
            <mxPoint x="562.56" y="1347.5" as="targetPoint" />
          </mxGeometry>
        </mxCell>
        <mxCell id="0IGYqATvzg_pEUOGRtzh-218" value="&lt;font style=&quot;font-size: 15px;&quot;&gt;&amp;amp;&lt;/font&gt;" style="rounded=0;whiteSpace=wrap;html=1;" vertex="1" parent="1">
          <mxGeometry x="594.56" y="1624.5" width="34" height="34" as="geometry" />
        </mxCell>
        <mxCell id="0IGYqATvzg_pEUOGRtzh-219" value="" style="endArrow=none;html=1;rounded=0;entryX=0.25;entryY=0;entryDx=0;entryDy=0;exitX=0.25;exitY=1;exitDx=0;exitDy=0;" edge="1" parent="1" source="0IGYqATvzg_pEUOGRtzh-218" target="0IGYqATvzg_pEUOGRtzh-218">
          <mxGeometry width="50" height="50" relative="1" as="geometry">
            <mxPoint x="523.56" y="1666.5" as="sourcePoint" />
            <mxPoint x="573.56" y="1616.5" as="targetPoint" />
          </mxGeometry>
        </mxCell>
        <mxCell id="0IGYqATvzg_pEUOGRtzh-220" value="&lt;font style=&quot;font-size: 15px;&quot;&gt;&amp;amp;&lt;/font&gt;" style="rounded=0;whiteSpace=wrap;html=1;" vertex="1" parent="1">
          <mxGeometry x="601.56" y="1913.5" width="34" height="34" as="geometry" />
        </mxCell>
        <mxCell id="0IGYqATvzg_pEUOGRtzh-221" value="" style="endArrow=none;html=1;rounded=0;entryX=0.25;entryY=0;entryDx=0;entryDy=0;exitX=0.25;exitY=1;exitDx=0;exitDy=0;" edge="1" parent="1" source="0IGYqATvzg_pEUOGRtzh-220" target="0IGYqATvzg_pEUOGRtzh-220">
          <mxGeometry width="50" height="50" relative="1" as="geometry">
            <mxPoint x="530.56" y="1955.5" as="sourcePoint" />
            <mxPoint x="580.56" y="1905.5" as="targetPoint" />
          </mxGeometry>
        </mxCell>
        <mxCell id="0IGYqATvzg_pEUOGRtzh-222" style="edgeStyle=orthogonalEdgeStyle;rounded=0;orthogonalLoop=1;jettySize=auto;html=1;" edge="1" parent="1">
          <mxGeometry relative="1" as="geometry">
            <mxPoint x="591.56" y="1651" as="sourcePoint" />
            <mxPoint x="203.56" y="1798" as="targetPoint" />
            <Array as="points">
              <mxPoint x="581.56" y="1650" />
              <mxPoint x="581.56" y="1732" />
              <mxPoint x="111.56" y="1732" />
              <mxPoint x="111.56" y="1798" />
            </Array>
          </mxGeometry>
        </mxCell>
        <mxCell id="0IGYqATvzg_pEUOGRtzh-223" value="" style="rounded=0;whiteSpace=wrap;html=1;gradientColor=none;glass=0;shadow=0;" vertex="1" parent="1">
          <mxGeometry x="213.33999999999997" y="2052.5" width="155" height="90" as="geometry" />
        </mxCell>
        <mxCell id="0IGYqATvzg_pEUOGRtzh-224" value="" style="endArrow=none;html=1;rounded=0;exitX=0.003;exitY=0.15;exitDx=0;exitDy=0;entryX=0.077;entryY=0;entryDx=0;entryDy=0;entryPerimeter=0;jumpSize=100;endSize=6;jumpStyle=none;exitPerimeter=0;" edge="1" parent="1" source="0IGYqATvzg_pEUOGRtzh-223" target="0IGYqATvzg_pEUOGRtzh-223">
          <mxGeometry width="50" height="50" relative="1" as="geometry">
            <mxPoint x="213.33999999999997" y="2065.8199999999997" as="sourcePoint" />
            <mxPoint x="227.85999999999996" y="2052.5" as="targetPoint" />
          </mxGeometry>
        </mxCell>
        <mxCell id="0IGYqATvzg_pEUOGRtzh-225" value="0р." style="text;html=1;align=center;verticalAlign=middle;resizable=0;points=[];autosize=1;strokeColor=none;fillColor=none;fontSize=5;" vertex="1" parent="1">
          <mxGeometry x="209.33999999999997" y="2052.5" width="30" height="20" as="geometry" />
        </mxCell>
        <mxCell id="0IGYqATvzg_pEUOGRtzh-226" value="" style="endArrow=none;html=1;rounded=0;exitX=0.002;exitY=0.635;exitDx=0;exitDy=0;exitPerimeter=0;entryX=1.005;entryY=0.786;entryDx=0;entryDy=0;entryPerimeter=0;" edge="1" parent="1">
          <mxGeometry width="50" height="50" relative="1" as="geometry">
            <mxPoint x="213.57999999999998" y="2122.6" as="sourcePoint" />
            <mxPoint x="369.1150000000001" y="2122.24" as="targetPoint" />
          </mxGeometry>
        </mxCell>
        <mxCell id="0IGYqATvzg_pEUOGRtzh-227" value="4.1.1" style="text;html=1;align=center;verticalAlign=middle;resizable=0;points=[];autosize=1;strokeColor=none;fillColor=none;fontSize=8;" vertex="1" parent="1">
          <mxGeometry x="210.33999999999997" y="2123.5" width="40" height="20" as="geometry" />
        </mxCell>
        <mxCell id="0IGYqATvzg_pEUOGRtzh-228" value="&lt;p style=&quot;margin: 0cm; text-indent: 35.45pt;&quot; class=&quot;MsoListParagraph&quot;&gt;Определение игровых правил&lt;br&gt;&lt;/p&gt;" style="text;html=1;align=center;verticalAlign=middle;resizable=0;points=[];autosize=1;strokeColor=none;fillColor=none;fontSize=9;" vertex="1" parent="1">
          <mxGeometry x="167.33999999999997" y="2079.5" width="200" height="20" as="geometry" />
        </mxCell>
        <mxCell id="0IGYqATvzg_pEUOGRtzh-229" value="" style="endArrow=none;html=1;rounded=0;entryX=0.5;entryY=1;entryDx=0;entryDy=0;" edge="1" parent="1">
          <mxGeometry width="50" height="50" relative="1" as="geometry">
            <mxPoint x="290.78000000000003" y="2122.5" as="sourcePoint" />
            <mxPoint x="290.78000000000003" y="2142.5" as="targetPoint" />
          </mxGeometry>
        </mxCell>
        <mxCell id="0IGYqATvzg_pEUOGRtzh-230" value="" style="rounded=0;whiteSpace=wrap;html=1;gradientColor=none;glass=0;shadow=0;" vertex="1" parent="1">
          <mxGeometry x="409.12" y="2051.5" width="155" height="90" as="geometry" />
        </mxCell>
        <mxCell id="0IGYqATvzg_pEUOGRtzh-231" value="" style="endArrow=none;html=1;rounded=0;exitX=0.003;exitY=0.15;exitDx=0;exitDy=0;entryX=0.077;entryY=0;entryDx=0;entryDy=0;entryPerimeter=0;jumpSize=100;endSize=6;jumpStyle=none;exitPerimeter=0;" edge="1" parent="1" source="0IGYqATvzg_pEUOGRtzh-230" target="0IGYqATvzg_pEUOGRtzh-230">
          <mxGeometry width="50" height="50" relative="1" as="geometry">
            <mxPoint x="409.12" y="2064.8199999999997" as="sourcePoint" />
            <mxPoint x="423.64" y="2051.5" as="targetPoint" />
          </mxGeometry>
        </mxCell>
        <mxCell id="0IGYqATvzg_pEUOGRtzh-232" value="0р." style="text;html=1;align=center;verticalAlign=middle;resizable=0;points=[];autosize=1;strokeColor=none;fillColor=none;fontSize=5;" vertex="1" parent="1">
          <mxGeometry x="405.12" y="2051.5" width="30" height="20" as="geometry" />
        </mxCell>
        <mxCell id="0IGYqATvzg_pEUOGRtzh-233" value="" style="endArrow=none;html=1;rounded=0;exitX=0.002;exitY=0.635;exitDx=0;exitDy=0;exitPerimeter=0;entryX=1.005;entryY=0.786;entryDx=0;entryDy=0;entryPerimeter=0;" edge="1" parent="1">
          <mxGeometry width="50" height="50" relative="1" as="geometry">
            <mxPoint x="409.36" y="2121.6" as="sourcePoint" />
            <mxPoint x="564.895" y="2121.24" as="targetPoint" />
          </mxGeometry>
        </mxCell>
        <mxCell id="0IGYqATvzg_pEUOGRtzh-234" value="4.1.2" style="text;html=1;align=center;verticalAlign=middle;resizable=0;points=[];autosize=1;strokeColor=none;fillColor=none;fontSize=8;" vertex="1" parent="1">
          <mxGeometry x="406.12" y="2122.5" width="40" height="20" as="geometry" />
        </mxCell>
        <mxCell id="0IGYqATvzg_pEUOGRtzh-235" value="" style="endArrow=none;html=1;rounded=0;entryX=0.5;entryY=1;entryDx=0;entryDy=0;" edge="1" parent="1">
          <mxGeometry width="50" height="50" relative="1" as="geometry">
            <mxPoint x="486.56" y="2121.5" as="sourcePoint" />
            <mxPoint x="486.56" y="2141.5" as="targetPoint" />
          </mxGeometry>
        </mxCell>
        <mxCell id="0IGYqATvzg_pEUOGRtzh-236" value="" style="endArrow=classic;html=1;rounded=0;exitX=1;exitY=0.5;exitDx=0;exitDy=0;" edge="1" parent="1" source="0IGYqATvzg_pEUOGRtzh-223" target="0IGYqATvzg_pEUOGRtzh-230">
          <mxGeometry width="50" height="50" relative="1" as="geometry">
            <mxPoint x="373.12" y="2145.5" as="sourcePoint" />
            <mxPoint x="413.12" y="2095.5" as="targetPoint" />
          </mxGeometry>
        </mxCell>
        <mxCell id="0IGYqATvzg_pEUOGRtzh-237" value="" style="rounded=0;whiteSpace=wrap;html=1;gradientColor=none;glass=0;shadow=0;" vertex="1" parent="1">
          <mxGeometry x="409.12" y="2175" width="155" height="90" as="geometry" />
        </mxCell>
        <mxCell id="0IGYqATvzg_pEUOGRtzh-238" value="" style="endArrow=none;html=1;rounded=0;exitX=0.003;exitY=0.15;exitDx=0;exitDy=0;entryX=0.077;entryY=0;entryDx=0;entryDy=0;entryPerimeter=0;jumpSize=100;endSize=6;jumpStyle=none;exitPerimeter=0;" edge="1" parent="1" source="0IGYqATvzg_pEUOGRtzh-237" target="0IGYqATvzg_pEUOGRtzh-237">
          <mxGeometry width="50" height="50" relative="1" as="geometry">
            <mxPoint x="409.12" y="2188.3199999999997" as="sourcePoint" />
            <mxPoint x="423.64" y="2175" as="targetPoint" />
          </mxGeometry>
        </mxCell>
        <mxCell id="0IGYqATvzg_pEUOGRtzh-239" value="0р." style="text;html=1;align=center;verticalAlign=middle;resizable=0;points=[];autosize=1;strokeColor=none;fillColor=none;fontSize=5;" vertex="1" parent="1">
          <mxGeometry x="405.12" y="2175" width="30" height="20" as="geometry" />
        </mxCell>
        <mxCell id="0IGYqATvzg_pEUOGRtzh-240" value="" style="endArrow=none;html=1;rounded=0;exitX=0.002;exitY=0.635;exitDx=0;exitDy=0;exitPerimeter=0;entryX=1.005;entryY=0.786;entryDx=0;entryDy=0;entryPerimeter=0;" edge="1" parent="1">
          <mxGeometry width="50" height="50" relative="1" as="geometry">
            <mxPoint x="409.36" y="2245.1" as="sourcePoint" />
            <mxPoint x="564.895" y="2244.74" as="targetPoint" />
          </mxGeometry>
        </mxCell>
        <mxCell id="0IGYqATvzg_pEUOGRtzh-241" value="4.1.3" style="text;html=1;align=center;verticalAlign=middle;resizable=0;points=[];autosize=1;strokeColor=none;fillColor=none;fontSize=8;" vertex="1" parent="1">
          <mxGeometry x="406.12" y="2246" width="40" height="20" as="geometry" />
        </mxCell>
        <mxCell id="0IGYqATvzg_pEUOGRtzh-242" value="&lt;p style=&quot;border-color: var(--border-color); margin: 0cm; text-indent: 35.45pt;&quot; class=&quot;MsoListParagraph&quot;&gt;Создание и&amp;nbsp;&lt;/p&gt;&lt;p style=&quot;border-color: var(--border-color); margin: 0cm; text-indent: 35.45pt;&quot; class=&quot;MsoListParagraph&quot;&gt;настройка игровых задач&lt;br&gt;&lt;/p&gt;" style="text;html=1;align=center;verticalAlign=middle;resizable=0;points=[];autosize=1;strokeColor=none;fillColor=none;fontSize=9;" vertex="1" parent="1">
          <mxGeometry x="373.12" y="2192" width="180" height="40" as="geometry" />
        </mxCell>
        <mxCell id="0IGYqATvzg_pEUOGRtzh-243" value="" style="endArrow=none;html=1;rounded=0;entryX=0.5;entryY=1;entryDx=0;entryDy=0;" edge="1" parent="1">
          <mxGeometry width="50" height="50" relative="1" as="geometry">
            <mxPoint x="486.56" y="2245" as="sourcePoint" />
            <mxPoint x="486.56" y="2265" as="targetPoint" />
          </mxGeometry>
        </mxCell>
        <mxCell id="0IGYqATvzg_pEUOGRtzh-244" value="" style="endArrow=classic;html=1;rounded=0;exitX=0.5;exitY=1;exitDx=0;exitDy=0;entryX=0.5;entryY=0;entryDx=0;entryDy=0;" edge="1" parent="1">
          <mxGeometry width="50" height="50" relative="1" as="geometry">
            <mxPoint x="500.61999999999995" y="2140.5" as="sourcePoint" />
            <mxPoint x="500.61999999999995" y="2174" as="targetPoint" />
          </mxGeometry>
        </mxCell>
        <mxCell id="0IGYqATvzg_pEUOGRtzh-245" value="" style="rounded=0;whiteSpace=wrap;html=1;gradientColor=none;glass=0;shadow=0;" vertex="1" parent="1">
          <mxGeometry x="212.56" y="2175.5" width="155" height="90" as="geometry" />
        </mxCell>
        <mxCell id="0IGYqATvzg_pEUOGRtzh-246" value="" style="endArrow=none;html=1;rounded=0;exitX=0.003;exitY=0.15;exitDx=0;exitDy=0;entryX=0.077;entryY=0;entryDx=0;entryDy=0;entryPerimeter=0;jumpSize=100;endSize=6;jumpStyle=none;exitPerimeter=0;" edge="1" parent="1" source="0IGYqATvzg_pEUOGRtzh-245" target="0IGYqATvzg_pEUOGRtzh-245">
          <mxGeometry width="50" height="50" relative="1" as="geometry">
            <mxPoint x="212.56" y="2188.8199999999997" as="sourcePoint" />
            <mxPoint x="227.07999999999998" y="2175.5" as="targetPoint" />
          </mxGeometry>
        </mxCell>
        <mxCell id="0IGYqATvzg_pEUOGRtzh-247" value="0р." style="text;html=1;align=center;verticalAlign=middle;resizable=0;points=[];autosize=1;strokeColor=none;fillColor=none;fontSize=5;" vertex="1" parent="1">
          <mxGeometry x="208.56" y="2175.5" width="30" height="20" as="geometry" />
        </mxCell>
        <mxCell id="0IGYqATvzg_pEUOGRtzh-248" value="" style="endArrow=none;html=1;rounded=0;exitX=0.002;exitY=0.635;exitDx=0;exitDy=0;exitPerimeter=0;entryX=1.005;entryY=0.786;entryDx=0;entryDy=0;entryPerimeter=0;" edge="1" parent="1">
          <mxGeometry width="50" height="50" relative="1" as="geometry">
            <mxPoint x="212.8" y="2245.6" as="sourcePoint" />
            <mxPoint x="368.3350000000001" y="2245.24" as="targetPoint" />
          </mxGeometry>
        </mxCell>
        <mxCell id="0IGYqATvzg_pEUOGRtzh-249" value="4.1.4" style="text;html=1;align=center;verticalAlign=middle;resizable=0;points=[];autosize=1;strokeColor=none;fillColor=none;fontSize=8;" vertex="1" parent="1">
          <mxGeometry x="209.56" y="2246.5" width="40" height="20" as="geometry" />
        </mxCell>
        <mxCell id="0IGYqATvzg_pEUOGRtzh-250" value="&lt;p style=&quot;border-color: var(--border-color); margin: 0cm; text-indent: 35.45pt;&quot; class=&quot;MsoListParagraph&quot;&gt;Оптимизация ресурсов&lt;/p&gt;&lt;p style=&quot;border-color: var(--border-color); margin: 0cm; text-indent: 35.45pt;&quot; class=&quot;MsoListParagraph&quot;&gt;&amp;nbsp;и производительности&lt;br&gt;&lt;/p&gt;" style="text;html=1;align=center;verticalAlign=middle;resizable=0;points=[];autosize=1;strokeColor=none;fillColor=none;fontSize=9;" vertex="1" parent="1">
          <mxGeometry x="181.56" y="2194.5" width="170" height="40" as="geometry" />
        </mxCell>
        <mxCell id="0IGYqATvzg_pEUOGRtzh-251" value="" style="endArrow=none;html=1;rounded=0;entryX=0.5;entryY=1;entryDx=0;entryDy=0;" edge="1" parent="1">
          <mxGeometry width="50" height="50" relative="1" as="geometry">
            <mxPoint x="290" y="2245.5" as="sourcePoint" />
            <mxPoint x="290" y="2265.5" as="targetPoint" />
          </mxGeometry>
        </mxCell>
        <mxCell id="0IGYqATvzg_pEUOGRtzh-252" value="" style="endArrow=none;html=1;rounded=0;exitX=1;exitY=0.5;exitDx=0;exitDy=0;startArrow=classic;startFill=1;endFill=0;" edge="1" parent="1">
          <mxGeometry width="50" height="50" relative="1" as="geometry">
            <mxPoint x="367.56" y="2219.64" as="sourcePoint" />
            <mxPoint x="408.56" y="2219.64" as="targetPoint" />
          </mxGeometry>
        </mxCell>
        <mxCell id="0IGYqATvzg_pEUOGRtzh-253" value="Настроенная игровая логика,&lt;br&gt;&amp;nbsp;оптимизация ресурсов." style="text;html=1;align=center;verticalAlign=middle;resizable=0;points=[];autosize=1;strokeColor=none;fillColor=none;fontSize=7;" vertex="1" parent="1">
          <mxGeometry x="96.56" y="2182" width="120" height="30" as="geometry" />
        </mxCell>
        <mxCell id="0IGYqATvzg_pEUOGRtzh-254" value="Определенные игровые правила,&lt;br&gt;&amp;nbsp;события, игровой жанр и стиль." style="text;html=1;align=center;verticalAlign=middle;resizable=0;points=[];autosize=1;strokeColor=none;fillColor=none;fontSize=7;" vertex="1" parent="1">
          <mxGeometry x="93.56" y="2058.5" width="130" height="30" as="geometry" />
        </mxCell>
        <mxCell id="0IGYqATvzg_pEUOGRtzh-255" value="Установка событий&lt;br&gt;&amp;nbsp;и взаимодействий" style="text;html=1;align=center;verticalAlign=middle;resizable=0;points=[];autosize=1;strokeColor=none;fillColor=none;fontSize=9;" vertex="1" parent="1">
          <mxGeometry x="435.56" y="2069.5" width="100" height="40" as="geometry" />
        </mxCell>
        <mxCell id="0IGYqATvzg_pEUOGRtzh-256" value="" style="rounded=0;whiteSpace=wrap;html=1;gradientColor=none;glass=0;shadow=0;" vertex="1" parent="1">
          <mxGeometry x="768.3399999999999" y="2051" width="155" height="90" as="geometry" />
        </mxCell>
        <mxCell id="0IGYqATvzg_pEUOGRtzh-257" value="" style="endArrow=none;html=1;rounded=0;exitX=0.003;exitY=0.15;exitDx=0;exitDy=0;entryX=0.077;entryY=0;entryDx=0;entryDy=0;entryPerimeter=0;jumpSize=100;endSize=6;jumpStyle=none;exitPerimeter=0;" edge="1" parent="1" source="0IGYqATvzg_pEUOGRtzh-256" target="0IGYqATvzg_pEUOGRtzh-256">
          <mxGeometry width="50" height="50" relative="1" as="geometry">
            <mxPoint x="768.3399999999999" y="2064.3199999999997" as="sourcePoint" />
            <mxPoint x="782.8599999999999" y="2051" as="targetPoint" />
          </mxGeometry>
        </mxCell>
        <mxCell id="0IGYqATvzg_pEUOGRtzh-258" value="0р." style="text;html=1;align=center;verticalAlign=middle;resizable=0;points=[];autosize=1;strokeColor=none;fillColor=none;fontSize=5;" vertex="1" parent="1">
          <mxGeometry x="764.3399999999999" y="2051" width="30" height="20" as="geometry" />
        </mxCell>
        <mxCell id="0IGYqATvzg_pEUOGRtzh-259" value="" style="endArrow=none;html=1;rounded=0;exitX=0.002;exitY=0.635;exitDx=0;exitDy=0;exitPerimeter=0;entryX=1.005;entryY=0.786;entryDx=0;entryDy=0;entryPerimeter=0;" edge="1" parent="1">
          <mxGeometry width="50" height="50" relative="1" as="geometry">
            <mxPoint x="768.5799999999999" y="2121.1" as="sourcePoint" />
            <mxPoint x="924.115" y="2120.74" as="targetPoint" />
          </mxGeometry>
        </mxCell>
        <mxCell id="0IGYqATvzg_pEUOGRtzh-260" value="4.2.1" style="text;html=1;align=center;verticalAlign=middle;resizable=0;points=[];autosize=1;strokeColor=none;fillColor=none;fontSize=8;" vertex="1" parent="1">
          <mxGeometry x="765.3399999999999" y="2122" width="40" height="20" as="geometry" />
        </mxCell>
        <mxCell id="0IGYqATvzg_pEUOGRtzh-261" value="&lt;p style=&quot;margin: 0cm; text-indent: 35.45pt;&quot; class=&quot;MsoListParagraph&quot;&gt;Управление загрузкой&lt;/p&gt;&lt;p style=&quot;margin: 0cm; text-indent: 35.45pt;&quot; class=&quot;MsoListParagraph&quot;&gt;&amp;nbsp;и выгрузкой ресурсов&lt;br&gt;&lt;/p&gt;" style="text;html=1;align=center;verticalAlign=middle;resizable=0;points=[];autosize=1;strokeColor=none;fillColor=none;fontSize=9;" vertex="1" parent="1">
          <mxGeometry x="742.3399999999999" y="2068" width="160" height="40" as="geometry" />
        </mxCell>
        <mxCell id="0IGYqATvzg_pEUOGRtzh-262" value="" style="endArrow=none;html=1;rounded=0;entryX=0.5;entryY=1;entryDx=0;entryDy=0;" edge="1" parent="1">
          <mxGeometry width="50" height="50" relative="1" as="geometry">
            <mxPoint x="845.78" y="2121" as="sourcePoint" />
            <mxPoint x="845.78" y="2141" as="targetPoint" />
          </mxGeometry>
        </mxCell>
        <mxCell id="0IGYqATvzg_pEUOGRtzh-263" value="" style="rounded=0;whiteSpace=wrap;html=1;gradientColor=none;glass=0;shadow=0;" vertex="1" parent="1">
          <mxGeometry x="964.1199999999999" y="2050" width="155" height="90" as="geometry" />
        </mxCell>
        <mxCell id="0IGYqATvzg_pEUOGRtzh-264" value="" style="endArrow=none;html=1;rounded=0;exitX=0.003;exitY=0.15;exitDx=0;exitDy=0;entryX=0.077;entryY=0;entryDx=0;entryDy=0;entryPerimeter=0;jumpSize=100;endSize=6;jumpStyle=none;exitPerimeter=0;" edge="1" parent="1" source="0IGYqATvzg_pEUOGRtzh-263" target="0IGYqATvzg_pEUOGRtzh-263">
          <mxGeometry width="50" height="50" relative="1" as="geometry">
            <mxPoint x="964.1199999999999" y="2063.3199999999997" as="sourcePoint" />
            <mxPoint x="978.6399999999999" y="2050" as="targetPoint" />
          </mxGeometry>
        </mxCell>
        <mxCell id="0IGYqATvzg_pEUOGRtzh-265" value="0р." style="text;html=1;align=center;verticalAlign=middle;resizable=0;points=[];autosize=1;strokeColor=none;fillColor=none;fontSize=5;" vertex="1" parent="1">
          <mxGeometry x="960.1199999999999" y="2050" width="30" height="20" as="geometry" />
        </mxCell>
        <mxCell id="0IGYqATvzg_pEUOGRtzh-266" value="" style="endArrow=none;html=1;rounded=0;exitX=0.002;exitY=0.635;exitDx=0;exitDy=0;exitPerimeter=0;entryX=1.005;entryY=0.786;entryDx=0;entryDy=0;entryPerimeter=0;" edge="1" parent="1">
          <mxGeometry width="50" height="50" relative="1" as="geometry">
            <mxPoint x="964.3599999999999" y="2120.1" as="sourcePoint" />
            <mxPoint x="1119.895" y="2119.74" as="targetPoint" />
          </mxGeometry>
        </mxCell>
        <mxCell id="0IGYqATvzg_pEUOGRtzh-267" value="4.2.2" style="text;html=1;align=center;verticalAlign=middle;resizable=0;points=[];autosize=1;strokeColor=none;fillColor=none;fontSize=8;" vertex="1" parent="1">
          <mxGeometry x="961.1199999999999" y="2121" width="40" height="20" as="geometry" />
        </mxCell>
        <mxCell id="0IGYqATvzg_pEUOGRtzh-268" value="" style="endArrow=none;html=1;rounded=0;entryX=0.5;entryY=1;entryDx=0;entryDy=0;" edge="1" parent="1">
          <mxGeometry width="50" height="50" relative="1" as="geometry">
            <mxPoint x="1041.56" y="2120" as="sourcePoint" />
            <mxPoint x="1041.56" y="2140" as="targetPoint" />
          </mxGeometry>
        </mxCell>
        <mxCell id="0IGYqATvzg_pEUOGRtzh-269" value="" style="endArrow=classic;html=1;rounded=0;exitX=1;exitY=0.5;exitDx=0;exitDy=0;" edge="1" parent="1" source="0IGYqATvzg_pEUOGRtzh-256" target="0IGYqATvzg_pEUOGRtzh-263">
          <mxGeometry width="50" height="50" relative="1" as="geometry">
            <mxPoint x="928.1199999999999" y="2144" as="sourcePoint" />
            <mxPoint x="968.1199999999999" y="2094" as="targetPoint" />
          </mxGeometry>
        </mxCell>
        <mxCell id="0IGYqATvzg_pEUOGRtzh-270" value="" style="rounded=0;whiteSpace=wrap;html=1;gradientColor=none;glass=0;shadow=0;" vertex="1" parent="1">
          <mxGeometry x="964.1199999999999" y="2173.5" width="155" height="90" as="geometry" />
        </mxCell>
        <mxCell id="0IGYqATvzg_pEUOGRtzh-271" value="" style="endArrow=none;html=1;rounded=0;exitX=0.003;exitY=0.15;exitDx=0;exitDy=0;entryX=0.077;entryY=0;entryDx=0;entryDy=0;entryPerimeter=0;jumpSize=100;endSize=6;jumpStyle=none;exitPerimeter=0;" edge="1" parent="1" source="0IGYqATvzg_pEUOGRtzh-270" target="0IGYqATvzg_pEUOGRtzh-270">
          <mxGeometry width="50" height="50" relative="1" as="geometry">
            <mxPoint x="964.1199999999999" y="2186.8199999999997" as="sourcePoint" />
            <mxPoint x="978.6399999999999" y="2173.5" as="targetPoint" />
          </mxGeometry>
        </mxCell>
        <mxCell id="0IGYqATvzg_pEUOGRtzh-272" value="0р." style="text;html=1;align=center;verticalAlign=middle;resizable=0;points=[];autosize=1;strokeColor=none;fillColor=none;fontSize=5;" vertex="1" parent="1">
          <mxGeometry x="960.1199999999999" y="2173.5" width="30" height="20" as="geometry" />
        </mxCell>
        <mxCell id="0IGYqATvzg_pEUOGRtzh-273" value="" style="endArrow=none;html=1;rounded=0;exitX=0.002;exitY=0.635;exitDx=0;exitDy=0;exitPerimeter=0;entryX=1.005;entryY=0.786;entryDx=0;entryDy=0;entryPerimeter=0;" edge="1" parent="1">
          <mxGeometry width="50" height="50" relative="1" as="geometry">
            <mxPoint x="964.3599999999999" y="2243.6" as="sourcePoint" />
            <mxPoint x="1119.895" y="2243.24" as="targetPoint" />
          </mxGeometry>
        </mxCell>
        <mxCell id="0IGYqATvzg_pEUOGRtzh-274" value="4.2.3" style="text;html=1;align=center;verticalAlign=middle;resizable=0;points=[];autosize=1;strokeColor=none;fillColor=none;fontSize=8;" vertex="1" parent="1">
          <mxGeometry x="961.1199999999999" y="2244.5" width="40" height="20" as="geometry" />
        </mxCell>
        <mxCell id="0IGYqATvzg_pEUOGRtzh-275" value="&lt;p style=&quot;border-color: var(--border-color); margin: 0cm; text-indent: 35.45pt;&quot; class=&quot;MsoListParagraph&quot;&gt;Обработка ошибок и исключений&lt;br&gt;&lt;/p&gt;" style="text;html=1;align=center;verticalAlign=middle;resizable=0;points=[];autosize=1;strokeColor=none;fillColor=none;fontSize=9;" vertex="1" parent="1">
          <mxGeometry x="913.1199999999999" y="2200.5" width="210" height="20" as="geometry" />
        </mxCell>
        <mxCell id="0IGYqATvzg_pEUOGRtzh-276" value="" style="endArrow=none;html=1;rounded=0;entryX=0.5;entryY=1;entryDx=0;entryDy=0;" edge="1" parent="1">
          <mxGeometry width="50" height="50" relative="1" as="geometry">
            <mxPoint x="1041.56" y="2243.5" as="sourcePoint" />
            <mxPoint x="1041.56" y="2263.5" as="targetPoint" />
          </mxGeometry>
        </mxCell>
        <mxCell id="0IGYqATvzg_pEUOGRtzh-277" value="" style="endArrow=classic;html=1;rounded=0;exitX=0.5;exitY=1;exitDx=0;exitDy=0;entryX=0.5;entryY=0;entryDx=0;entryDy=0;" edge="1" parent="1">
          <mxGeometry width="50" height="50" relative="1" as="geometry">
            <mxPoint x="1055.62" y="2139" as="sourcePoint" />
            <mxPoint x="1055.62" y="2172.5" as="targetPoint" />
          </mxGeometry>
        </mxCell>
        <mxCell id="0IGYqATvzg_pEUOGRtzh-278" value="" style="rounded=0;whiteSpace=wrap;html=1;gradientColor=none;glass=0;shadow=0;" vertex="1" parent="1">
          <mxGeometry x="767.56" y="2174" width="155" height="90" as="geometry" />
        </mxCell>
        <mxCell id="0IGYqATvzg_pEUOGRtzh-279" value="" style="endArrow=none;html=1;rounded=0;exitX=0.003;exitY=0.15;exitDx=0;exitDy=0;entryX=0.077;entryY=0;entryDx=0;entryDy=0;entryPerimeter=0;jumpSize=100;endSize=6;jumpStyle=none;exitPerimeter=0;" edge="1" parent="1" source="0IGYqATvzg_pEUOGRtzh-278" target="0IGYqATvzg_pEUOGRtzh-278">
          <mxGeometry width="50" height="50" relative="1" as="geometry">
            <mxPoint x="767.56" y="2187.3199999999997" as="sourcePoint" />
            <mxPoint x="782.0799999999999" y="2174" as="targetPoint" />
          </mxGeometry>
        </mxCell>
        <mxCell id="0IGYqATvzg_pEUOGRtzh-280" value="0р." style="text;html=1;align=center;verticalAlign=middle;resizable=0;points=[];autosize=1;strokeColor=none;fillColor=none;fontSize=5;" vertex="1" parent="1">
          <mxGeometry x="763.56" y="2174" width="30" height="20" as="geometry" />
        </mxCell>
        <mxCell id="0IGYqATvzg_pEUOGRtzh-281" value="" style="endArrow=none;html=1;rounded=0;exitX=0.002;exitY=0.635;exitDx=0;exitDy=0;exitPerimeter=0;entryX=1.005;entryY=0.786;entryDx=0;entryDy=0;entryPerimeter=0;" edge="1" parent="1">
          <mxGeometry width="50" height="50" relative="1" as="geometry">
            <mxPoint x="767.8" y="2244.1" as="sourcePoint" />
            <mxPoint x="923.335" y="2243.74" as="targetPoint" />
          </mxGeometry>
        </mxCell>
        <mxCell id="0IGYqATvzg_pEUOGRtzh-282" value="4.2.4" style="text;html=1;align=center;verticalAlign=middle;resizable=0;points=[];autosize=1;strokeColor=none;fillColor=none;fontSize=8;" vertex="1" parent="1">
          <mxGeometry x="764.56" y="2245" width="40" height="20" as="geometry" />
        </mxCell>
        <mxCell id="0IGYqATvzg_pEUOGRtzh-283" value="&lt;p style=&quot;border-color: var(--border-color); margin: 0cm; text-indent: 35.45pt;&quot; class=&quot;MsoListParagraph&quot;&gt;Анализ и отчетность&lt;br&gt;&lt;/p&gt;" style="text;html=1;align=center;verticalAlign=middle;resizable=0;points=[];autosize=1;strokeColor=none;fillColor=none;fontSize=9;" vertex="1" parent="1">
          <mxGeometry x="741.56" y="2203" width="160" height="20" as="geometry" />
        </mxCell>
        <mxCell id="0IGYqATvzg_pEUOGRtzh-284" value="" style="endArrow=none;html=1;rounded=0;entryX=0.5;entryY=1;entryDx=0;entryDy=0;" edge="1" parent="1">
          <mxGeometry width="50" height="50" relative="1" as="geometry">
            <mxPoint x="845" y="2244" as="sourcePoint" />
            <mxPoint x="845" y="2264" as="targetPoint" />
          </mxGeometry>
        </mxCell>
        <mxCell id="0IGYqATvzg_pEUOGRtzh-285" value="" style="endArrow=none;html=1;rounded=0;exitX=1;exitY=0.5;exitDx=0;exitDy=0;startArrow=classic;startFill=1;endFill=0;" edge="1" parent="1">
          <mxGeometry width="50" height="50" relative="1" as="geometry">
            <mxPoint x="922.56" y="2218.14" as="sourcePoint" />
            <mxPoint x="963.56" y="2218.14" as="targetPoint" />
          </mxGeometry>
        </mxCell>
        <mxCell id="0IGYqATvzg_pEUOGRtzh-286" value="" style="endArrow=none;html=1;rounded=0;entryX=0;entryY=0.5;entryDx=0;entryDy=0;startArrow=classic;startFill=1;endFill=0;exitX=1;exitY=0.5;exitDx=0;exitDy=0;" edge="1" parent="1">
          <mxGeometry width="50" height="50" relative="1" as="geometry">
            <mxPoint x="641.56" y="2222.5" as="sourcePoint" />
            <mxPoint x="767.56" y="2222.5" as="targetPoint" />
          </mxGeometry>
        </mxCell>
        <mxCell id="0IGYqATvzg_pEUOGRtzh-287" value="Управление ресурсами,&lt;br&gt;&amp;nbsp;оптимизация,&lt;br&gt;&amp;nbsp;технические ограничения." style="text;html=1;align=center;verticalAlign=middle;resizable=0;points=[];autosize=1;strokeColor=none;fillColor=none;fontSize=7;" vertex="1" parent="1">
          <mxGeometry x="657.56" y="2058.5" width="110" height="40" as="geometry" />
        </mxCell>
        <mxCell id="0IGYqATvzg_pEUOGRtzh-288" value="Оптимизация памяти&lt;br&gt;&amp;nbsp;и производительности" style="text;html=1;align=center;verticalAlign=middle;resizable=0;points=[];autosize=1;strokeColor=none;fillColor=none;fontSize=9;" vertex="1" parent="1">
          <mxGeometry x="980.56" y="2068" width="120" height="40" as="geometry" />
        </mxCell>
        <mxCell id="0IGYqATvzg_pEUOGRtzh-289" value="агрузка и выгрузка ресурсов,&lt;br&gt;&amp;nbsp;оптимизированная память,&lt;br&gt;&amp;nbsp;обработка ошибок." style="text;html=1;align=center;verticalAlign=middle;resizable=0;points=[];autosize=1;strokeColor=none;fillColor=none;fontSize=7;" vertex="1" parent="1">
          <mxGeometry x="647.56" y="2186.5" width="120" height="40" as="geometry" />
        </mxCell>
        <mxCell id="0IGYqATvzg_pEUOGRtzh-290" value="&lt;font style=&quot;font-size: 15px;&quot;&gt;&amp;amp;&lt;/font&gt;" style="rounded=0;whiteSpace=wrap;html=1;" vertex="1" parent="1">
          <mxGeometry x="607.56" y="2138.5" width="34" height="34" as="geometry" />
        </mxCell>
        <mxCell id="0IGYqATvzg_pEUOGRtzh-291" value="" style="endArrow=none;html=1;rounded=0;entryX=0.25;entryY=0;entryDx=0;entryDy=0;exitX=0.25;exitY=1;exitDx=0;exitDy=0;" edge="1" parent="1" source="0IGYqATvzg_pEUOGRtzh-290" target="0IGYqATvzg_pEUOGRtzh-290">
          <mxGeometry width="50" height="50" relative="1" as="geometry">
            <mxPoint x="536.56" y="2180.5" as="sourcePoint" />
            <mxPoint x="586.56" y="2130.5" as="targetPoint" />
          </mxGeometry>
        </mxCell>
        <mxCell id="0IGYqATvzg_pEUOGRtzh-292" value="" style="endArrow=none;html=1;rounded=0;startArrow=classic;startFill=1;endFill=0;exitX=0;exitY=0.5;exitDx=0;exitDy=0;" edge="1" parent="1" source="0IGYqATvzg_pEUOGRtzh-290">
          <mxGeometry width="50" height="50" relative="1" as="geometry">
            <mxPoint x="117.00000000000006" y="2216.5" as="sourcePoint" />
            <mxPoint x="209.56" y="2216" as="targetPoint" />
            <Array as="points">
              <mxPoint x="587.56" y="2156" />
              <mxPoint x="587.56" y="2288" />
              <mxPoint x="117.56" y="2288" />
              <mxPoint x="117.56" y="2217" />
            </Array>
          </mxGeometry>
        </mxCell>
        <mxCell id="0IGYqATvzg_pEUOGRtzh-293" value="" style="endArrow=classic;html=1;rounded=0;exitX=1;exitY=0.5;exitDx=0;exitDy=0;" edge="1" parent="1">
          <mxGeometry width="50" height="50" relative="1" as="geometry">
            <mxPoint x="641.56" y="2155.5" as="sourcePoint" />
            <mxPoint x="769.56" y="2098" as="targetPoint" />
            <Array as="points">
              <mxPoint x="667.56" y="2156" />
              <mxPoint x="667.56" y="2098" />
            </Array>
          </mxGeometry>
        </mxCell>
        <mxCell id="0IGYqATvzg_pEUOGRtzh-294" style="edgeStyle=orthogonalEdgeStyle;rounded=0;orthogonalLoop=1;jettySize=auto;html=1;entryX=0.003;entryY=0.415;entryDx=0;entryDy=0;entryPerimeter=0;" edge="1" parent="1" target="0IGYqATvzg_pEUOGRtzh-223">
          <mxGeometry relative="1" as="geometry">
            <mxPoint x="601.56" y="1938.94" as="sourcePoint" />
            <mxPoint x="270" y="2030" as="targetPoint" />
            <Array as="points">
              <mxPoint x="592" y="1939" />
              <mxPoint x="592" y="2020" />
              <mxPoint x="100" y="2020" />
              <mxPoint x="100" y="2090" />
            </Array>
          </mxGeometry>
        </mxCell>
      </root>
    </mxGraphModel>
  </diagram>
</mxfile>
